<svg xmlns="http://www.w3.org/2000/svg" xmlns:xlink="http://www.w3.org/1999/xlink" viewBox="0 0 4680 3120"><defs><style>.cls-1,.cls-41{fill:#c6d8dc;}.cls-2{isolation:isolate;}.cls-3{fill:#fff;}.cls-4{clip-path:url(#clip-path);}.cls-5{fill:#adc8cc;}.cls-6{fill:#eec8ad;}.cls-7{opacity:0.5;}.cls-29,.cls-8{fill:#d28d5f;}.cls-9{opacity:0.49;}.cls-10,.cls-29{opacity:0.68;}.cls-11{fill:#716558;}.cls-12,.cls-15{opacity:0.23;mix-blend-mode:multiply;}.cls-13,.cls-15{fill:#231f20;}.cls-14{opacity:0.53;}.cls-16{fill:#44a7a7;}.cls-17{fill:#7b393b;}.cls-18,.cls-54{fill:#318e8b;}.cls-19{fill:#b86836;}.cls-20{fill:#571e1e;}.cls-21{fill:#f29f4c;}.cls-22{fill:#ca1d3b;}.cls-23{opacity:0.55;}.cls-24{fill:#9a132f;}.cls-25{fill:#e81f4b;}.cls-26{fill:#38324f;}.cls-27{fill:#201d2c;}.cls-28{fill:#f8c066;}.cls-30{fill:#a5a140;}.cls-31{fill:#8e8a2f;}.cls-32{fill:#b3bd73;}.cls-33{fill:#8ab2b7;}.cls-34{fill:#770b2a;}.cls-35{fill:#444;}.cls-36{fill:#e2e2e2;}.cls-37{fill:#165e58;}.cls-38{fill:#135149;}.cls-39{fill:#f9ad9b;}.cls-40{fill:#f68e6e;}.cls-41,.cls-42{opacity:0.6;}.cls-43{fill:#0d1b3b;}.cls-44{fill:#f3693f;}.cls-45{fill:#df4110;}.cls-46{opacity:0.47;}.cls-47{fill:#936475;}.cls-48{fill:#7c5360;}.cls-49{fill:#ffd38d;}.cls-50{fill:#ffac73;}.cls-51{fill:#f35c55;}.cls-52{opacity:0.52;}.cls-53{fill:#d84e6c;}.cls-54{opacity:0.45;}.cls-55{opacity:0.46;}.cls-56,.cls-57,.cls-58{fill:none;}.cls-56{stroke:#44a7a7;}.cls-56,.cls-58{stroke-miterlimit:10;}.cls-58{stroke:#38324f;stroke-width:10px;}.cls-59{opacity:0.59;}</style><clipPath id="clip-path"><path class="cls-1" d="M1314.44,535.65C978.52,611.9,680.25,849.11,687.06,1216.32c3.43,184.56,87.91,328.24,135.62,499.8,31.31,112.59-46.62,234.49-83.85,337.27-64.61,178.4-69.81,400.42,97.9,524.09,60.63,44.7,131.08,77.72,205,92,395.25,76.54,646.25,95.61,1119.78,89.38,392.22-5.15,779-44.06,1167.89-100.48,249.2-36.14,590.55-93.87,647.22-394.7,42.62-226.26,2.58-477.38-125.26-673.76-139.09-213.66-368.39-317.78-612.87-360-217.17-37.46-432.3-94.25-634-184.19C2404,956.37,2238,817.21,2056.88,696.12,1832.37,546,1582,474.93,1314.44,535.65Z"/></clipPath></defs><title>08</title><g class="cls-2"><g id="_08" data-name="08"><rect id="_08-2" data-name="08" class="cls-3" width="4680" height="3120"/><path class="cls-1" d="M1314.44,535.65C978.52,611.9,680.25,849.11,687.06,1216.32c3.43,184.56,87.91,328.24,135.62,499.8,31.31,112.59-46.62,234.49-83.85,337.27-64.61,178.4-69.81,400.42,97.9,524.09,60.63,44.7,131.08,77.72,205,92,395.25,76.54,646.25,95.61,1119.78,89.38,392.22-5.15,779-44.06,1167.89-100.48,249.2-36.14,590.55-93.87,647.22-394.7,42.62-226.26,2.58-477.38-125.26-673.76-139.09-213.66-368.39-317.78-612.87-360-217.17-37.46-432.3-94.25-634-184.19C2404,956.37,2238,817.21,2056.88,696.12,1832.37,546,1582,474.93,1314.44,535.65Z"/><g class="cls-4"><path class="cls-5" d="M3800.59,1626.5q-10,30.36-22.31,60H943.79a500.66,500.66,0,0,1,14.74-60Z"/><path class="cls-6" d="M4492.25,2519.73c-42.26,136.69-182.48,220.4-321.27,249.13-146.59,30.33-300.4,19.8-449.17,28.64-154.93,9.19-309.72,22-464.8,28.73q-515.45,22.36-1031.6,16.88c-203.11-1.9-409,1-610.6-15.77-203.2-16.9-407.81-2.4-610.71-24.72-326.85-36-571.29-194.72-734.69-479.41q-5.85-10.18-11.55-20.57-10.32-18.81-20.47-38.21H4479.46c5.49,19.64,10.49,39.23,14.63,58.78C4508.11,2389.23,4512.35,2454.72,4492.25,2519.73Z"/><g class="cls-7"><path class="cls-8" d="M4510.39,2329.7H285.7q-5.85-6.15-11.55-12.41-14.72-16.18-29.08-33.09Q239,2277,233,2269.73h4250.9c1.24,2.44,2.44,4.89,3.65,7.33C4496.21,2294.67,4504.24,2312.21,4510.39,2329.7Z"/></g><path class="cls-5" d="M4494.09,2299.9H269.41q-5.85-6.15-11.55-12.41-14.72-16.18-29.08-33.09-6.09-7.17-12.09-14.47h4250.9c1.23,2.44,2.44,4.89,3.65,7.33C4479.92,2264.87,4487.94,2282.41,4494.09,2299.9Z"/><g class="cls-9"><path class="cls-5" d="M3935.48,1502.48c24.44-10.59,37.31-38.09,44.41-64.29s11-54.26,26.27-76.51c-16.2-1.93-32.23,7-42.93,19.64-35.46,41.8-19.3,118.42-19.3,170,0,67.46-4.56,129.64,16,192.86,17.64,54.1,15.73,114.49-2.44,168.18-18.64,55.06-13.6,108.07-13.6,167v188.38c0,12.81-8.21,23.19-18.34,23.19s-18.34-10.38-18.34-23.19V2145.13c0-265.71-2.07-530.76,6.41-795.29,1.15-36-.88-76.93-8.75-112.1-7.13-31.83-21.7-60.57-25.53-94-.22-1.91-.4-4,.51-5.64,2.93-5.45,11-.65,14.54,4.38s11,10.41,14.57,5.39c1.07-1.5,1.22-3.47,1.31-5.32,1.24-25.36-5.33-50.31-4.25-75.68.91-21.36,9.94-43.11-1.15-63.37-10.89-19.9-34.71-31.59-40.42-53.65-4.33-16.71,3.26-34,10.66-49.52,15.82,25.24,31.22,50.87,47.68,75.66,8.77-31.9-3.3-84.69-5.71-118.08-3.65-50.37-9.87-100.56-9.87-151.14V496.14c0-6.33,5.38-74.46,0-77.34q18.63,9.94,36.68,21.48v985.33"/></g><g class="cls-9"><path class="cls-5" d="M3717.2,1561.64c22.56-9.72,34.43-35,41-59.16s10.15-50,24.22-70.44c-15-1.74-29.76,6.56-39.65,18.24-32.76,38.72-17.88,109.57-17.93,157.32-.06,62.42-4.35,119.94,14.58,178.41,16.2,50,14.35,105.89-2.52,155.52-17.31,50.91-12.77,99.91-12.88,154.34-.13,58,.68,116-.42,174-.22,11.84-8.38,21.16-18,20.82s-17.29-10.31-17.29-22.6V2146.49c0-245.28-1.91-544.22,5.92-788.41,1.06-33.2-.81-78.71-8.08-111.16-6.59-29.38-20-62.57-23.57-93.38-.2-1.76-.36-4,.47-5.6,2.71-5,10.13-1.82,13.42,2.82s10.14,8.39,13.45,3.76c1-1.38,1.13-3.57,1.22-5.29,1.13-23.4-4.92-51.61-3.93-75,.84-19.72,9.18-44.2-1.06-62.9-10.06-18.38-32-33.79-37.31-54.15-4-15.43,3-34.9,9.83-49.25,14.61,23.3,28.83,40.86,44,63.74,8.1-29.45-3-86.29-5.28-117.12-3.36-46.49-9.1-103.18-9.1-149.86V495.8c0-5.84,5-74.05,0-76.7q10.91,5.82,21.63,12.22c5.05,3,10.07,8.75,15.05,11.93V1490.68"/></g><g class="cls-9"><path class="cls-5" d="M3498.92,1620.79c20.67-8.84,31.56-32,37.56-54s9.29-45.66,22.18-64.37c-13.71-1.56-27.3,6.09-36.37,16.84-30.06,35.63-16.46,100.72-16.56,144.62-.13,57.37-4.14,110.23,13.12,164,14.76,46,13,97.27-2.6,142.85-16,46.75-11.93,91.74-12.17,141.68-.26,53.24,1.36,106.47-.83,159.56-.45,10.87-8.54,19.12-17.63,18.44s-16.24-10.25-16.24-22V2147.84c0-224.84-1.75-557.69,5.43-781.52,1-30.45-.74-80.49-7.41-110.24-6-26.93-18.36-64.56-21.6-92.81-.18-1.61-.33-4.13.44-5.55,2.48-4.61,9.28-3,12.3,1.27s9.29,6.37,12.33,2.12c.91-1.26,1-3.68,1.11-5.25,1-21.46-4.51-52.93-3.6-74.4.77-18.07,8.41-45.28-1-62.43-9.22-16.84-29.37-36-34.21-54.65-3.66-14.14,2.76-35.82,9-49,13.39,21.36,26.43,30.84,40.35,51.81,7.42-27-2.79-87.89-4.84-116.15-3.08-42.62-8.35-105.79-8.35-148.59v-207c0-5.34,4.56-73.63,0-76.06q11.55,6.17,22.88,13c4.63,2.74,9.23,10.92,13.8,13.84V1555.74"/></g><g class="cls-9"><path class="cls-5" d="M3280.64,1679.93c18.79-8,28.69-28.94,34.14-48.91s8.43-41.36,20.14-58.3c-12.48-1.37-24.84,5.63-33.09,15.44-27.37,32.56-15,91.87-15.21,131.92-.18,52.32-3.91,100.53,11.68,149.51,13.32,41.93,11.58,88.66-2.7,130.19-14.64,42.6-11.09,83.58-11.45,129-.39,48.46,2,97-1.24,145.15-.68,9.91-8.7,17.08-17.27,16.05s-15.19-10.18-15.19-21.41V2149.17c0-204.4-1.59-571.15,4.94-774.64.88-27.67-.68-82.25-6.74-109.3-5.48-24.49-16.69-66.56-19.64-92.23-.16-1.47-.3-4.22.4-5.51,2.25-4.19,8.44-4.15,11.18-.28s8.45,4.34,11.21.48c.83-1.15.94-3.8,1-5.22,1-19.51-4.1-54.24-3.27-73.75.7-16.44,7.65-46.38-.88-62-8.38-15.31-26.7-38.18-31.1-55.15-3.33-12.86,2.51-36.73,8.2-48.69,12.17,19.41,24,20.82,36.68,39.89,6.75-24.55-2.54-89.5-4.4-115.19-2.8-38.74-7.59-108.41-7.59-147.31V495.08c0-4.86,4.15-73.22,0-75.43q12.21,6.51,24.14,13.76c4.22,2.49,8.4,13.09,12.55,15.75V1620.79"/></g><g class="cls-9"><path class="cls-5" d="M3062.36,1739.05c16.91-7.09,25.81-25.88,30.71-43.78s7.57-37.07,18.1-52.23c-11.24-1.19-22.37,5.16-29.81,14-24.66,29.48-13.64,83-13.84,119.23-.24,47.26-3.7,90.82,10.22,135,11.88,37.87,10.2,80.06-2.78,117.53-13.31,38.45-10.26,75.41-10.73,116.38-.53,43.67,2.67,87.47-1.67,130.73-.9,9-8.85,15.05-16.91,13.67-7.89-1.35-14.13-10.11-14.13-20.81V2150.49c0-184-1.43-584.62,4.44-767.76.8-24.9-.6-84-6.06-108.37-4.94-22-15-68.55-17.67-91.66-.16-1.32-.28-4.3.35-5.46,2-3.77,7.6-5.32,10.07-1.84s7.6,2.32,10.09-1.15c.74-1,.84-3.91.9-5.19.86-17.56-3.69-55.55-2.94-73.11.63-14.79,6.88-47.47-.79-61.49-7.55-13.78-24-40.39-28-55.66-3-11.57,2.26-37.65,7.38-48.41,11,17.47,21.62,10.8,33,28,6.07-22.09-2.28-91.1-4-114.23-2.52-34.86-6.83-111-6.83-146V494.7c0-4.38,3.73-72.81,0-74.8q12.86,6.86,25.4,14.53c3.79,2.24,7.55,15.26,11.29,17.65V1685.82"/></g><g class="cls-9"><path class="cls-5" d="M2844.07,1798.14c15-6.21,22.95-22.83,27.3-38.65s6.71-32.77,16.05-46.16c-10-1-19.9,4.69-26.52,12.63-22,26.39-12.23,74.17-12.49,106.53-.3,42.21-3.48,81.12,8.77,120.59,10.44,33.82,8.82,71.45-2.86,104.88-12,34.29-9.43,67.23-10,103.72-.66,38.9,3.28,78-2.08,116.32a13.62,13.62,0,0,1-16.55,11.29c-7.33-1.68-13.08-10.05-13.08-20.21V2151.77c0-163.51-1.27-598.08,3.95-760.86.71-22.14-.54-85.81-5.39-107.45-4.39-19.59-13.35-70.54-15.71-91.08-.14-1.18-.24-4.39.31-5.42,1.81-3.35,6.75-6.48,8.95-3.39s6.76.29,9-2.79c.66-.92.75-4,.81-5.16.76-15.6-3.28-56.85-2.62-72.47.56-13.14,6.12-48.55-.71-61-6.7-12.25-21.36-42.58-24.87-56.16-2.67-10.28,2-38.56,6.56-48.13,9.74,15.53,19.21.78,29.34,16,5.4-19.64-2-92.71-3.52-113.26-2.24-31-6.07-113.64-6.07-144.76V494.29c0-3.89,3.32-72.4,0-74.17q13.48,7.2,26.65,15.31c3.37,2,6.72,17.43,10,19.55V1750.83"/></g><g class="cls-9"><path class="cls-5" d="M2625.79,1857.19c13.16-5.33,20.08-19.77,23.87-33.52s5.86-28.47,14-40.09c-8.76-.82-17.43,4.22-23.24,11.23-19.27,23.31-10.81,65.33-11.12,93.83-.36,37.16-3.27,71.41,7.31,106.14,9,29.76,7.43,62.84-2.94,92.22-10.65,30.13-8.6,59.06-9.31,91.06-.79,34.12,3.81,68.68-2.49,101.91-1.37,7.21-9.16,11-16.2,8.91-6.76-2-12-10-12-19.62V2153c0-143.07-1.11-611.54,3.45-754,.62-19.37-.47-87.58-4.71-106.52-3.84-17.13-11.69-72.53-13.75-90.5-.12-1-.21-4.47.28-5.38,1.58-2.93,5.9-7.65,7.83-4.94s5.91-1.73,7.84-4.43c.58-.81.66-4.12.71-5.12.66-13.66-2.87-58.17-2.29-71.83.49-11.5,5.35-49.64-.62-60.55-5.87-10.72-18.69-44.78-21.77-56.66-2.33-9,1.76-39.49,5.74-47.85,8.53,13.59,16.82-9.24,25.68,4.11,4.72-17.18-1.78-94.32-3.08-112.3-2-27.12-5.31-116.25-5.31-143.48V493.84c0-3.4,2.9-72,0-73.53q14.13,7.53,27.9,16.08c3,1.74,5.88,19.6,8.79,21.46V1815.8"/></g><g class="cls-9"><path class="cls-5" d="M2407.51,1916.22c11.28-4.46,17.2-16.72,20.45-28.39s5-24.18,12-34c-7.51-.64-15,3.75-20,9.83-16.57,20.22-9.39,56.47-9.75,81.12-.43,32.12-3.06,61.71,5.85,91.69,7.57,25.71,6.05,54.23-3,79.56-9.32,26-7.77,50.9-8.59,78.41q-1.38,44-2.91,87.49c-2.93,5.92-9.31,9-15.84,6.53-6.2-2.32-11-9.91-11-19V2154.25c0-122.64-1-625,3-747.1.53-16.61-.41-89.36-4-105.59-3.29-14.69-10-74.52-11.79-89.93-.1-.88-.18-4.56.24-5.33,1.35-2.51,5.06-8.81,6.71-6.49s5.07-3.76,6.73-6.07c.49-.69.56-4.23.6-5.09.57-11.7-2.46-59.48-2-71.19.42-9.86,4.59-50.73-.53-60.08-5-9.19-16-47-18.66-57.16-2-7.71,1.51-40.4,4.92-47.58,7.31,11.65,14.41-19.25,22-7.81,4-14.73-1.52-95.92-2.64-111.33-1.68-23.25-4.55-118.87-4.55-142.21V493.37c0-2.92,2.48-71.58,0-72.9q14.78,7.88,29.16,16.85c2.52,1.49,5,21.77,7.52,23.36V1880.74"/></g><g class="cls-9"><path class="cls-5" d="M2189.23,1975.17c9.4-3.58,14.33-13.67,17-23.26s4.14-19.88,9.93-28c-6.28-.44-12.51,3.29-16.68,8.43-13.88,17.15-8,47.63-8.4,68.43-.48,27.06-2.84,52,4.4,77.23,6.13,21.65,4.67,45.63-3.11,66.9-8,21.82-6.93,42.73-7.87,65.75q-1.58,36.86-3.33,73.09a12,12,0,0,1-15.48,4.15c-5.63-2.63-9.91-9.85-9.91-18.43V2155.39c0-102.19-.8-638.47,2.46-740.21.45-13.84-.33-91.13-3.36-104.65-2.75-12.24-8.35-76.52-9.82-89.36-.09-.74-.15-4.64.19-5.29,1.13-2.1,4.22-10,5.6-8.05s4.22-5.77,5.6-7.7c.41-.58.47-4.34.51-5.06.47-9.75-2.05-60.78-1.64-70.54.35-8.22,3.82-51.82-.44-59.61s-13.35-49.18-15.55-57.67c-1.66-6.42,1.25-41.32,4.1-47.29,6.09,9.7,12-29.28,18.34-19.74,3.37-12.28-1.27-97.53-2.2-110.37-1.4-19.37-3.79-121.48-3.79-140.93V492.82c0-2.44,2.07-71.16,0-72.27q15.4,8.22,30.41,17.62c2.11,1.25,4.2,23.94,6.27,25.27V1945.6"/></g><g class="cls-9"><path class="cls-5" d="M1971,2034c7.52-2.71,11.46-10.62,13.6-18.13s3.27-15.59,7.88-21.89c-5-.26-10,2.82-13.4,7-11.17,14.06-6.57,38.78-7,55.72-.55,22-2.58,42.29,2.94,62.78,4.73,17.59,3.29,37-3.19,54.24-6.65,17.67-6.1,34.56-7.16,53.1q-1.77,29.67-3.74,58.67c-3.77,3.95-9.62,5-15.12,1.77-5.07-2.93-8.87-9.77-8.87-17.82V2156.45c0-81.76-.63-651.94,2-733.33.35-11.07-.27-92.9-2.7-103.72-2.19-9.8-6.67-78.52-7.85-88.79a26.11,26.11,0,0,1,.16-5.24c.9-1.68,3.37-11.15,4.47-9.6s3.38-7.8,4.48-9.34c.33-.47.38-4.45.41-5,.38-7.8-1.64-62.09-1.31-69.9.28-6.57,3.06-52.91-.35-59.14s-10.68-51.38-12.44-58.16c-1.33-5.15,1-42.24,3.28-47,4.87,7.76,9.61-39.3,14.67-31.67,2.7-9.82-1-99.13-1.76-109.4-1.12-15.5-3-124.1-3-139.66V492.17c0-1.94,1.66-70.74,0-71.63q16.05,8.56,31.66,18.4c1.69,1,3.36,26.11,5,27.17V2010.37"/></g><g class="cls-9"><path class="cls-5" d="M1752.67,2092.76c5.64-1.83,8.58-7.56,10.17-13s2.42-11.29,5.84-15.82c-3.8-.08-7.58,2.35-10.12,5.63-8.5,11-5.15,29.93-5.67,43-.6,17-2.35,32.58,1.49,48.32,3.3,13.54,1.91,28.42-3.27,41.59-5.32,13.51-5.27,26.39-6.44,40.44q-2,22.51-4.16,44.26c-4.19,3-9.78,3-14.77-.61-4.5-3.23-7.81-9.71-7.81-17.23v-112c0-61.32-.47-665.4,1.48-726.45.27-8.3-.2-94.67-2-102.79-1.64-7.34-5-80.51-5.89-88.21a34.59,34.59,0,0,1,.12-5.2c.68-1.26,2.53-12.31,3.36-11.15s2.53-9.83,3.36-11c.25-.35.28-4.56.3-5,.29-5.85-1.23-63.41-1-69.26.21-4.93,2.29-54-.27-58.67s-8-53.58-9.32-58.67c-1-3.86.75-43.15,2.46-46.74,3.65,5.82,7.2-49.31,11-43.59,2-7.37-.76-100.73-1.32-108.44-.84-11.62-2.28-126.71-2.28-138.38V491.4c0-1.46,1.25-70.33,0-71q16.71,8.89,32.93,19.16c1.26.75,2.51,28.28,3.76,29.08V2075"/></g><g class="cls-9"><path class="cls-5" d="M1534.39,2151.32c3.76-1,5.71-4.51,6.75-7.88s1.55-7,3.79-9.74c-2.56.11-5.11,1.88-6.83,4.22-5.81,7.88-3.77,21.08-4.31,30.33-.7,11.91-2.14,22.88,0,33.86a50.22,50.22,0,0,1-3.35,28.93c-4,9.36-4.41,18.23-5.73,27.79-1.41,10.23-3,20.19-4.57,29.85-4.61,2-10,1-14.41-3-4-3.52-6.76-9.64-6.76-16.63V2158.13c0-40.88-.32-678.86,1-719.56.18-5.53-.14-96.45-1.35-101.86-1.1-4.89-3.34-82.5-3.93-87.63,0-.3-.06-4.9.08-5.16.45-.84,1.69-13.48,2.24-12.71s1.69-11.84,2.24-12.62c.17-.23.19-4.66.2-4.95.19-3.9-.82-64.71-.65-68.62.14-3.28,1.53-55.08-.18-58.2s-5.34-55.77-6.22-59.17c-.66-2.57.51-44.07,1.64-46.46,2.44,3.88,4.81-59.33,7.34-55.52,1.35-4.91-.51-102.33-.88-107.47-.56-7.75-1.52-129.33-1.52-137.11V490.46c0-1,.83-69.92,0-70.36q17.34,9.24,34.18,19.93c.84.5,1.68,30.45,2.51,31V2139.49"/></g><g class="cls-9"><path class="cls-5" d="M1316.11,2209.66a3.72,3.72,0,0,0,3.32-2.74c.49-1.27.7-2.7,1.75-3.68a6.24,6.24,0,0,0-3.55,2.82c-3.1,4.8-2.35,12.23-2.94,17.63-.76,6.86-1.93,13.18-1.43,19.41a31,31,0,0,1-3.43,16.26c-2.66,5.21-3.58,10.07-5,15.14-1.54,5.46-3.25,10.61-5,15.44-5,1-10.13-1-14-5.38a24.13,24.13,0,0,1-5.71-16V2158.67c0-20.44-.16-692.33.49-712.67.09-2.77-.06-98.23-.67-100.93-.55-2.45-1.67-84.5-2-87.07,0-.14,0-5,0-5.11.22-.42.84-14.64,1.11-14.26s.85-13.87,1.13-14.25c.08-.12.09-4.78.1-4.92.09-2-.41-66-.33-68,.07-1.64.76-56.18-.09-57.73s-2.67-58-3.11-59.67c-.33-1.29.25-45,.82-46.19,1.22,1.94,2.4-69.35,3.67-67.44.67-2.45-.25-103.94-.44-106.51-.28-3.87-.76-131.94-.76-135.83V489.3c0-.48.41-69.51,0-69.73q18,9.6,35.43,20.71c.42.25.84,32.62,1.26,32.89V2203.74"/></g><g class="cls-9"><path class="cls-5" d="M1097.63,440.28V2267.76c0,12.81-8.22,23.19-18.34,23.19s-18.35-10.38-18.35-23.19V418.8Q1079.57,428.75,1097.63,440.28Z"/></g><rect class="cls-6" x="964.05" y="2064.73" width="680.07" height="250.83"/><rect class="cls-8" x="945.12" y="817.74" width="18.94" height="1504.96"/><rect class="cls-8" x="1644.12" y="817.74" width="18.94" height="1504.96"/><rect class="cls-8" x="946.31" y="2306.09" width="715.56" height="18.93"/><rect class="cls-8" x="946.31" y="2045.8" width="715.56" height="18.93"/><rect class="cls-8" x="946.31" y="817.74" width="715.56" height="18.93"/><rect class="cls-8" x="946.31" y="1229.63" width="715.56" height="18.94"/><rect class="cls-8" x="946.31" y="1648.32" width="715.56" height="18.93"/><g class="cls-10"><circle class="cls-8" cx="1304.09" cy="2190.14" r="14.47"/></g><rect class="cls-11" x="964.05" y="1667.25" width="680.07" height="378.54"/><rect class="cls-11" x="964.05" y="1248.56" width="680.07" height="400.09"/><rect class="cls-11" x="964.05" y="836.68" width="680.07" height="393.29"/><g class="cls-12"><rect class="cls-13" x="1108.98" y="1366.37" width="66.33" height="281.13"/><polygon class="cls-13" points="1212.36 1645.93 1205.06 1646.48 1191.47 1647.5 1174.95 1428.35 1193.51 1426.96 1195.84 1426.78 1212.36 1645.93"/><polygon class="cls-13" points="1250.51 1644.47 1238.18 1646.28 1229.83 1647.5 1197.98 1430.05 1202.93 1429.33 1218.67 1427.02 1250.51 1644.47"/><rect class="cls-13" x="1252.92" y="1446.33" width="68.95" height="201.17"/><rect class="cls-13" x="1332.02" y="1379.87" width="68.93" height="267.63"/><polygon class="cls-13" points="1451.85 1645.25 1430.54 1646.89 1422.57 1647.5 1411.39 1502.3 1399.64 1349.8 1428.92 1347.54 1451.85 1645.25"/><polygon class="cls-13" points="1508.73 1643.63 1458.05 1644.75 1454.41 1480.78 1490.6 1479.97 1505.09 1479.65 1507.47 1586.48 1508.73 1643.63"/><polygon class="cls-13" points="1587.99 1637.32 1567.39 1642.58 1548.13 1647.5 1505.47 1480.64 1504.45 1476.63 1544.31 1466.45 1587.99 1637.32"/><path class="cls-13" d="M1507.47,1586.48A977.08,977.08,0,0,1,1490.6,1480l14.49-.32Z"/><path class="cls-13" d="M1430.54,1646.89l-8,.61-11.18-145.2A916.88,916.88,0,0,1,1430.54,1646.89Z"/><g class="cls-14"><path class="cls-13" d="M1401,1379.87V1647.5s-24.83-233.35-28.85-267.63Z"/></g><path class="cls-13" d="M1321.86,1446.33V1647.5h-.43c-6.18-57.84-16.63-155.48-21.66-201.17Z"/><polygon class="cls-13" points="1195.84 1426.78 1212.36 1645.93 1205.06 1646.48 1193.51 1426.96 1195.84 1426.78"/><polygon class="cls-13" points="1238.18 1646.28 1229.83 1647.5 1197.98 1430.05 1202.93 1429.33 1203.73 1434.25 1238.18 1646.28"/><path class="cls-13" d="M1175.31,1411.3v236.2h-19.2C1160.44,1592.67,1173.05,1433.58,1175.31,1411.3Z"/><path class="cls-13" d="M1567.39,1642.58l-19.26,4.92-42.66-166.86C1510,1492.47,1554.07,1607,1567.39,1642.58Z"/></g><polygon class="cls-15" points="964.05 1229.97 964.05 836.67 1644.13 836.67 1644.13 914.89 1055.04 914.89 1055.04 1229.97 964.05 1229.97"/><polygon class="cls-15" points="964.05 1648.66 964.05 1248.56 1644.13 1248.56 1644.13 1326.78 1055.04 1326.78 1055.04 1648.66 964.05 1648.66"/><polygon class="cls-15" points="964.05 2045.8 964.05 1667.25 1644.13 1667.25 1644.13 1745.47 1055.04 1745.47 1055.04 2045.8 964.05 2045.8"/><rect class="cls-16" x="1083" y="1366.37" width="66.33" height="281.13"/><polygon class="cls-8" points="1186.37 1645.93 1179.08 1646.48 1165.48 1647.5 1148.96 1428.35 1167.52 1426.96 1169.85 1426.78 1186.37 1645.93"/><polygon class="cls-16" points="1224.53 1644.47 1212.2 1646.28 1203.84 1647.5 1172 1430.05 1176.94 1429.33 1192.68 1427.02 1224.53 1644.47"/><rect class="cls-8" x="1226.93" y="1446.33" width="68.95" height="201.17"/><rect class="cls-17" x="1306.04" y="1379.87" width="68.93" height="267.63"/><polygon class="cls-8" points="1425.87 1645.25 1404.55 1646.89 1396.59 1647.5 1385.4 1502.3 1373.65 1349.8 1402.93 1347.54 1425.87 1645.25"/><polygon class="cls-16" points="1482.74 1643.63 1432.06 1644.75 1428.42 1480.78 1464.61 1479.97 1479.11 1479.65 1481.48 1586.48 1482.74 1643.63"/><polygon class="cls-16" points="1562.01 1637.32 1541.4 1642.58 1522.14 1647.5 1479.49 1480.64 1478.46 1476.63 1518.33 1466.45 1562.01 1637.32"/><path class="cls-18" d="M1481.48,1586.48A979.51,979.51,0,0,1,1464.61,1480l14.5-.32Z"/><path class="cls-19" d="M1404.55,1646.89l-8,.61-11.19-145.2A916.88,916.88,0,0,1,1404.55,1646.89Z"/><path class="cls-20" d="M1375,1379.87V1647.5s-24.84-233.35-28.86-267.63Z"/><path class="cls-19" d="M1295.88,1446.33V1647.5h-.44c-6.18-57.84-16.62-155.48-21.66-201.17Z"/><polygon class="cls-19" points="1169.85 1426.78 1186.37 1645.93 1179.08 1646.48 1167.52 1426.96 1169.85 1426.78"/><polygon class="cls-18" points="1212.2 1646.28 1203.84 1647.5 1172 1430.05 1176.94 1429.33 1177.74 1434.25 1212.2 1646.28"/><path class="cls-18" d="M1149.33,1411.3v236.2h-19.21C1134.46,1592.67,1147.06,1433.58,1149.33,1411.3Z"/><path class="cls-18" d="M1541.4,1642.58l-19.26,4.92-42.65-166.86C1484,1492.47,1528.08,1607,1541.4,1642.58Z"/><path class="cls-8" d="M3529.25,2206.29s18.1,108.25,19.3,113.45,3.62,7.81,10.26,7.81h22.33c5.43,0,7.24-5.72,8.45-9.37s16.29-111.89,16.29-111.89Z"/><path class="cls-8" d="M3908.18,2206.29s-18.1,108.25-19.31,113.45-3.62,7.81-10.26,7.81h-22.32c-5.43,0-7.24-5.72-8.45-9.37s-16.29-111.89-16.29-111.89Z"/><path class="cls-19" d="M3567.56,2245.19c14.13-1.84,25.5-2.74,33.3-3.19,1.71-12.12,3.2-22.74,4.11-29.19l-71.95-6.52h-3.77s2.84,17,6.35,37.85C3541.45,2245.78,3551.65,2247.25,3567.56,2245.19Z"/><path class="cls-19" d="M3869.86,2247.88c-14.13-1.84-25.5-2.74-33.29-3.19-1.72-12.12-3.21-22.75-4.11-29.19l71.95-6.53h3.77s-2.84,17-6.35,37.86C3896,2248.47,3885.77,2249.94,3869.86,2247.88Z"/><rect class="cls-8" x="3460.76" y="1641.9" width="515.91" height="19.91"/><rect class="cls-8" x="3471.62" y="1661.81" width="494.19" height="561.17"/><rect class="cls-19" x="3471.62" y="1661.81" width="494.19" height="19.92"/><g class="cls-7"><path class="cls-19" d="M3976.67,1641.9v19.91h-10.86v51.73a9.19,9.19,0,0,0-1.83-1.45,410.23,410.23,0,0,0-46.39-25.46c-4.17-1.94-8.3-3.45-12.39-4.9-7.5-2.69-14.85-5.18-22-9.79q-8.28-5.34-16.78-10.13a253.59,253.59,0,0,0-44.75-19.91Z"/></g><rect class="cls-19" x="3500.58" y="1736.03" width="436.26" height="135.77" rx="5.25"/><rect class="cls-19" x="3500.58" y="1895.33" width="436.26" height="135.77" rx="5.25"/><rect class="cls-19" x="3500.58" y="2054.63" width="436.26" height="135.77" rx="5.25"/><rect class="cls-6" x="3500.58" y="1725.17" width="436.26" height="135.77" rx="5.25"/><rect class="cls-6" x="3500.58" y="1884.47" width="436.26" height="135.77" rx="5.25"/><rect class="cls-6" x="3500.58" y="2043.76" width="436.26" height="135.77" rx="5.25"/><path class="cls-19" d="M3738.93,1795.47a17.8,17.8,0,1,1-17.8-17.8A17.8,17.8,0,0,1,3738.93,1795.47Z"/><path class="cls-21" d="M3734.1,1793.05a15.39,15.39,0,1,1-15.39-15.38A15.39,15.39,0,0,1,3734.1,1793.05Z"/><circle class="cls-19" cx="3718.71" cy="1952.35" r="17.8"/><path class="cls-21" d="M3731.69,1949.94a15.39,15.39,0,1,1-15.39-15.39A15.39,15.39,0,0,1,3731.69,1949.94Z"/><circle class="cls-19" cx="3716.3" cy="2109.23" r="17.8"/><path class="cls-21" d="M3729.27,2106.82a15.39,15.39,0,1,1-15.38-15.39A15.39,15.39,0,0,1,3729.27,2106.82Z"/><path class="cls-22" d="M2408.93,1786.47v413.1h629l17.31-81.69,39.47-186.3s-2.71-22.57-6.24-50.87c-4-32.29-9.13-72-12.5-94.24a124.1,124.1,0,0,0-7.07-26.44c-12.52-32.07-39.23-59.6-81.67-59.6H2477c-27.34,0-46.84,13.59-57.77,35.77C2412.43,1750,2408.93,1767.18,2408.93,1786.47Z"/><path class="cls-22" d="M1723.13,1931.58l56.77,268h629v-413.1c0-19.53-3.58-36.88-10.56-50.79-11-21.88-30.4-35.25-57.53-35.25H1830.6c-53.87,0-82.39,44.36-88.73,86-3,19.51-7.27,52.58-11,82.23-1.62,12.89-3.14,25.14-4.4,35.34C1724.46,1920.46,1723.13,1931.58,1723.13,1931.58Z"/><g class="cls-23"><path class="cls-24" d="M2060.93,2123.61c27.29,32.95,64.57,55.78,102.41,76h531.41a185.55,185.55,0,0,0,16.25-13.9c36.62-35.34,54.85-86.37,59.95-137s-1.71-101.65-8.5-152.09l-23.89-65.39c1.94,41.29-24,79-54.38,107-40.74,37.5-108.21,79-165.87,79-53.14,0-89.8-72-94.95-120.16-3,19.66-7,39.47-14.43,57.85a141.9,141.9,0,0,1-11.14,22.17c-14.92,23.93-39.6,43.2-67.71,45.46-96.12,7.73-163.45-6.34-245.34-57.27-18.35-11.42-47.86,11.94-54.58,32.48C2016.12,2040.55,2032.15,2088.87,2060.93,2123.61Z"/></g><path class="cls-24" d="M1757.72,2217l50.7,66.55h1201l50.71-66.55-32-59.47s-6.14-41.95-77.4-41.95c-57.94,0-115.87,1.06-173.8,2-48.75.81-106-4.49-151.39,16.1-66.69-32.28-147.27-34.42-215.58-5.73-5.3,2.23-10.75,4.68-16.5,4.5-5.1-.16-9.88-2.39-14.57-4.44-58.71-25.65-127.17-28.16-187.6-6.85-11.35,4-22.74,8.87-34.78,9.07-8,.13-15.84-1.81-23.58-3.73-82.23-20.45-166-10.94-251.1-10.94H1867.1c-71.27,0-77.4,41.95-77.4,41.95Z"/><path class="cls-22" d="M1550.3,1967.79l4.86,14.7,97.59,294.87a92.24,92.24,0,0,0,87.55,63.24H3077.57a92.22,92.22,0,0,0,87.54-63.24l32.76-99,68.87-208.07.83-2.53a58.75,58.75,0,0,0-55.79-77.22h-61c-1.76,0-3.5.07-5.22.24a58.75,58.75,0,0,0-50.8,40.76l-19.36,61.11-54.94,173.43-10.61,33.46-3.51,11.09H1811.55l-88.42-279.09a58.74,58.74,0,0,0-56-41h-61C1566,1890.57,1537.7,1929.77,1550.3,1967.79Z"/><path class="cls-25" d="M2031.71,1702.75a1639.54,1639.54,0,0,1,366.66,32.93c-11-21.88-30.4-35.25-57.53-35.25H2032.7C2032.35,1701.19,2032,1702,2031.71,1702.75Z"/><path class="cls-25" d="M2419.25,1736.2c11.32-.39,20.17-1.74,35.85-3.93,106.75-14.92,213.63-12.34,321.23-16.11,97.41-3.43,199.09,14.85,292.6,43.87-12.52-32.07-39.23-59.6-81.67-59.6H2477C2449.68,1700.43,2430.18,1714,2419.25,1736.2Z"/><path class="cls-26" d="M2408.93,2340.59H3073s-21.22,34.87-64.18,34.87H1809c-43,0-64.19-34.87-64.19-34.87Z"/><path class="cls-27" d="M2949.46,2375.46s79.22,92.36,82.39,95.34H2997l-152.12-95.34Z"/><path class="cls-27" d="M1868.41,2375.46s-79.23,92.36-82.4,95.34h34.86L1973,2375.46Z"/><path class="cls-25" d="M3187.53,1890.57a189.47,189.47,0,0,1,28.92,21.79c19,17.22,34.87,37.45,50.29,58l.83-2.53c12.59-38-15.73-77.22-55.78-77.22Z"/><path class="cls-25" d="M1550.3,1967.79l4.86,14.7c14.14-20.4,29-40.44,47.56-56.78,21.63-19,49.27-32.79,78.06-32.07l1.36-1.12a58.5,58.5,0,0,0-15-2h-61A58.75,58.75,0,0,0,1550.3,1967.79Z"/><g class="cls-23"><path class="cls-24" d="M2680.17,2150c61.49,9.15,123.29,16.85,185.41,19.83,31.66,1.52,63.38,1.85,95.05.57,23.51-.94,42.49-9.8,64.48-11.23.66-63.69,46.94-115,82.13-165.28,16.3-23.29,45.66-73.86,38.3-103.11a58.73,58.73,0,0,0-50.8,40.77s-2.71-22.57-6.24-50.87c-.37-5.09-193.12-32.18-214.36-34.27-20.91-2-37.83-13.6-57.27-20.92-28.27-10.65-56-13.59-65.26,20.21-17.5,63.94-16.57,132.63-35.88,196C2713.09,2050.38,2669.26,2148.41,2680.17,2150Z"/></g><path class="cls-28" d="M2678,2089.7c30.19,7.91,59,20.35,88.59,28.44,32.4,8.85,69,7,102.25,13.14a635.45,635.45,0,0,1,113.76,32,23.18,23.18,0,0,0,31.64-21.71,634.23,634.23,0,0,1,11.05-117.65c7.34-39.37,17.5-75.72,21.1-115.25,1.29-14.24,9-29.47,10-42.15,1.61-20.14-6.42-31.71-26.19-8.59-7.25.12-6.94-9.78-9.09-17.36a20.38,20.38,0,0,0-1.29-3.45c-3.22-6.48-11.8-8.56-18.89-7.1s-13.31,5.53-19.93,8.47c-34.62,15.44-74.34-1.1-108.76-17-27.6-12.74-77.75-36.44-106.75-14.37-25.29,19.25-27.85,80.33-25.25,108.4,2,21.2,6.9,45.18-6.5,61.73-4,4.89-9.3,8.69-12.39,14.16-5.28,9.32-2.84,20.84-2.61,31.55a70.41,70.41,0,0,1-4.4,25.82C2707.89,2066.33,2694.82,2081.52,2678,2089.7Z"/><path class="cls-21" d="M2678,2089.7c30.19,7.91,59,20.35,88.59,28.44,32.4,8.85,69,7,102.25,13.14a635.45,635.45,0,0,1,113.76,32,23.18,23.18,0,0,0,31.64-21.71,634.23,634.23,0,0,1,11.05-117.65c7.34-39.37,17.5-75.72,21.1-115.25,1.29-14.24,9-29.47,10-42.15,1.61-20.14-6.42-31.71-26.19-8.59-7.25.12-6.94-9.78-9.1-17.35-15,37.15,4.74,70.39-39.27,96.49-4.41,2.61-9.23,4.83-14.34,5.06-6.22.29-12.21-2.38-17.56-5.57-29.64-17.65-45.92-50.93-71-74.63-3.49-3.3-7.74-6.62-12.52-6.14-7.6.77-10.8,10-11.44,17.66a109.51,109.51,0,0,0,2.27,33.19c1.47,6.56,2.66,15.24-3.3,18.33-2.47,1.27-5.41,1-8.16.74l-76.54-7.86c-6.82-.7-15.61-.27-18,6.16-1.62,4.34.82,9.07,3.31,13a199.07,199.07,0,0,0,37.89,43.73c4.31,3.72,9,7.63,10.51,13.13,2.62,9.78-6,18.7-14.21,24.73-20.81,15.39-46.85,21.48-67.22,34.69C2716.27,2056.69,2686.8,2092,2678,2089.7Z"/><g class="cls-23"><path class="cls-24" d="M1747.42,1964.72c20.67,54.36,46.79,125.57,44.59,183.93-.18,4.79,6.68,9.53,9,13.74q197.63,4.29,395.32-.2l-31.37-30.67a610.28,610.28,0,0,1-110.49-265.61c-1.75-11.18-4.14-.91-5.56-12.14-106.2.48-212.77,23.57-318,14.93-1.62,12.89-3.14,25.14-4.4,35.34C1736.22,1927.39,1743.47,1954.34,1747.42,1964.72Z"/></g><path class="cls-28" d="M1803.65,2141.58a23.19,23.19,0,0,0,31.65,21.71,654.85,654.85,0,0,1,231.39-43.06,23.18,23.18,0,0,0,21.71-31.64,655,655,0,0,1-43.06-231.4,23.19,23.19,0,0,0-31.64-21.71,655,655,0,0,1-231.4,43.06,23.19,23.19,0,0,0-21.71,31.64,655,655,0,0,1,43.06,231.4Z"/><path class="cls-21" d="M2013.7,1835.48c-8.29,3.24-18.06,6.8-29.15,10.44,21.76,30.26,71.14,113.57,20.88,190-52.07,79.18-165.18,80.35-202.34,78.44.45,10.15.6,19.3.56,27.24a23.19,23.19,0,0,0,31.65,21.71,654.85,654.85,0,0,1,231.39-43.06,23.18,23.18,0,0,0,21.71-31.64,655,655,0,0,1-43.06-231.4A23.19,23.19,0,0,0,2013.7,1835.48Z"/><path class="cls-29" d="M3459,2469.21c0,31.15-180.09,89.21-697.44,100.88q-101.75,2.28-196.74,2.59c13.08,6.3,20,12.88,20,19.63,0,47-334.29,85-746.66,85s-746.66-38.07-746.66-85c0-38.57,225.53-71.13,534.61-81.54-62.36-15-78.7-30-41-41.56,29.78-9.11,419.5-56.39,937-56.39S3459,2438.07,3459,2469.21Z"/><path class="cls-30" d="M3083.58,2193.41l-2.15,13.21-2.63,16.22-2,12-38.34,236.22a78,78,0,0,1-74.38,65.45L2831.74,2541l-164.45,5.49a85.51,85.51,0,0,1-87.46-73l-46.39-314.53-1.59-10.83,159.74,13.12,12.26,1h0l1.56.12,9,.74,3.86.32,115.33,9.48L2993.45,2186l7.94.65.11,0,.26,0Z"/><polygon class="cls-31" points="2699.49 2229.92 3077.12 2234.88 3081.88 2200.84 2692.35 2167.42 2699.49 2229.92"/><path class="cls-31" d="M2831.75,2541l-164.46,5.48a85.51,85.51,0,0,1-87.46-73l-46.39-314.53-1.59-10.83,159.74,13.12,12.26,1h0l1.56.13c.21,1.24.43,2.49.65,3.73l.45,2.57c.33,1.82.64,3.62,1,5.43,0,.14.05.28.08.42,2.52,14,5.21,28.07,8.2,42.31q1.41,6.72,2.88,13.37,1.17,5.39,2.39,10.7a.43.43,0,0,1,0,.05q6.74,29.64,14.36,57.71C2761.57,2395,2795,2477,2831.74,2541Z"/><path class="cls-31" d="M2995.29,2181.49c2.89.15,5.45,2.77,6.82,7a24.3,24.3,0,0,1,0,14c-14,46.3-50.6,156.71-83.2,169.59-41.39,16.32-79.76-65.14-167.17-69.18-46-2.12-56.75-75.1-59.24-113.88a30.72,30.72,0,0,1,3.27-16.2c2.44-4.46,5.84-6.94,9.29-6.75Z"/><polygon class="cls-32" points="2527.58 2138.01 3090.16 2185.17 3085.7 2206.99 2527.65 2158.41 2527.58 2138.01"/><polygon class="cls-30" points="2687.86 2172.57 2694.73 2151.64 2713.49 2153.54 2715.66 2175.28 2687.86 2172.57"/><path class="cls-5" d="M2997.57,2155.2c2.64.59,5,3.41,6.26,7.61a26.49,26.49,0,0,1,.28,13.7c-11.66,46.12-43.72,161.78-75.22,175-39.44,16.61-79.25-66.74-163.85-71-44.68-2.27-57.47-77.47-61.1-117a32.35,32.35,0,0,1,2.56-16.39c2.16-4.54,5.32-7.11,8.6-7l132.43,3.26,63.83-7.14Z"/><path class="cls-1" d="M2983.89,2163.22s-75.75-26.84-140-12.16c-36.61,8.38-106.47-13.43-135.87-7.82,2.2-4.57,5.42-7.09,8.75-6.89,0,0,126.59,8.79,153.92,1.27,69.36-19,132.45,17.93,133.92,22.24a26.37,26.37,0,0,1,.45,14.28c-5.25,20.62-14.22,53.71-25.24,85.54C2999,2186,2995.71,2163.89,2983.89,2163.22Z"/><path class="cls-33" d="M2708.15,2144.93c25.64,53.67,83.66,105.17,154.52,131.13,38.14,14,74.55,18.55,105.62,15-12.11,30-25.8,54.82-39.38,60.54-39.46,16.63-79.27-66.73-163.87-71-44.5-2.25-57.36-76.88-61.05-116.51a32.44,32.44,0,0,1,2.62-16.56A16,16,0,0,1,2708.15,2144.93Z"/><path class="cls-33" d="M2782.87,2181.54c15.29,6.19,71.09,93,111.91,121.74l-97.32-47C2809.9,2242.54,2767.58,2175.36,2782.87,2181.54Z"/></g><path class="cls-34" d="M1139.76,2573.28c24.57,5.81,46.87,12,70.79,18.29,28.49-3.37,58.94-3.59,87.12-8.47s58.75-18.14,85.48-22.23,108-6,121.1-26.94.18-98-20.89-108.26c-23.7,21.08-46.16,43.32-78.12,43.54s-46.3-14.18-61.49-36.39a838.11,838.11,0,0,1-90.92,69.46,122.5,122.5,0,0,1-16,8.77c-26.3,12.29-62.75,22.13-81.77,31.91-21.49,11.06-13.49,14.34-14.73,26.89A29.81,29.81,0,0,1,1139.76,2573.28Z"/><path class="cls-35" d="M1274,2503.19a7.49,7.49,0,0,1-1.85,9.5c-2.93,2.19-6.39,1.12-8.12-2a7.43,7.43,0,0,1,1.84-9.49C1268.83,2499,1272.31,2500.06,1274,2503.19Z"/><path class="cls-35" d="M1290,2491.38a7.49,7.49,0,0,1-2,9.49c-3,2.16-6.42,1.13-8.15-2a7.4,7.4,0,0,1,2-9.5C1284.85,2487.15,1288.35,2488.19,1290,2491.38Z"/><path class="cls-35" d="M1306.24,2479.68a7.48,7.48,0,0,1-2.12,9.48c-3,2.13-6.47,1.08-8.15-2.13a7.43,7.43,0,0,1,2.08-9.47C1301.05,2475.42,1304.59,2476.46,1306.24,2479.68Z"/><path class="cls-35" d="M1322.59,2468.24a7.46,7.46,0,0,1-2.26,9.43c-3,2.09-6.45,1-8.09-2.24a7.42,7.42,0,0,1,2.2-9.43C1317.47,2463.92,1321,2465,1322.59,2468.24Z"/><path class="cls-35" d="M1339,2457.11a7.37,7.37,0,0,1-2.32,9.33c-3,2-6.48.88-8.05-2.33a7.38,7.38,0,0,1,2.28-9.33C1333.88,2452.74,1337.38,2453.89,1339,2457.11Z"/><path class="cls-36" d="M1263.79,2491.11l-5,3.44c2.4,4.28,5,9,7.29,13.16a2.6,2.6,0,0,0,2.82,1.53,1.41,1.41,0,0,0,1.14-.5c1.24-1.33,1.84-2.68.83-4.63C1268.7,2500,1266.05,2495.36,1263.79,2491.11Z"/><path class="cls-36" d="M1280,2479.42c-1.67,1.21-3.31,2.42-5,3.64,2.27,4.17,4.68,8.77,6.91,12.8a2.59,2.59,0,0,0,2.81,1.55,1.48,1.48,0,0,0,1.16-.5c1.26-1.32,1.91-2.67.92-4.63C1284.78,2488.17,1282.21,2483.62,1280,2479.42Z"/><path class="cls-36" d="M1296.13,2467.25c-1.65,1.25-3.28,2.5-4.92,3.76,2.25,4.27,4.66,9,6.88,13.08a2.58,2.58,0,0,0,2.8,1.58,1.51,1.51,0,0,0,1.17-.49c1.28-1.31,1.94-2.65,1-4.63C1300.91,2476.3,1298.34,2471.61,1296.13,2467.25Z"/><path class="cls-36" d="M1312.11,2454.81c-1.64,1.26-3.26,2.54-4.88,3.83,2.36,4.52,4.87,9.48,7.15,13.88a2.59,2.59,0,0,0,2.78,1.62,1.5,1.5,0,0,0,1.18-.48c1.28-1.29,2-2.59,1-4.6C1317.2,2464.47,1314.46,2459.47,1312.11,2454.81Z"/><path class="cls-36" d="M1327.82,2442.24c-1.6,1.28-3.18,2.57-4.77,3.87,2.55,4.94,5.28,10.3,7.71,15.15.73,1.46,1.47,1.57,2.74,1.63a1.45,1.45,0,0,0,1.18-.45c1.28-1.27,2-2.54,1.07-4.55C1333.37,2452.82,1330.39,2447.37,1327.82,2442.24Z"/><path class="cls-36" d="M1374.35,2591.43c-24.31,4.22-66.06,12.53-88.62,16-51.28,8-91.72,12.17-141.41,9.58-19.79-1-17.78-38.57-5.67-47.15,54.84-.56,83.68,1,142.8-9.84,63.76-11.71,153.13-28.61,221.9-39.88,17.86,13,13.79,28.16,8.82,46C1465.24,2574.42,1422.48,2583.08,1374.35,2591.43Z"/><path class="cls-37" d="M1277.21,2373.87c1.36,9.8,3.33,16.74,6,20.17a56.7,56.7,0,0,1,10,19.52c10.12,34.64-10,75.46-10,75.46l86.51-2.58,58.53-1.74c19.28-.58,30.29-6.32,48.3-10.35,8.19-1.84,17.34-2.81,23.08-8.93,14.65-15.6-1.62-39.39-6.51-55.43-6.84-22.46-9.53-46.65-15.73-69.42-18.53-68.16-29.13-145.43-35.09-216.56-4.26-50.68-6.17-98.23-6.92-137.14a428.8,428.8,0,0,1-56.32,4.5,413,413,0,0,1-82.69-7.2c-1.53,22.24-3.45,47.13-5.52,73.34C1281.69,2174.88,1269.67,2319,1277.21,2373.87Z"/><path class="cls-38" d="M1277.21,2373.87c1.36,9.8,3.33,16.74,6,20.17a56.7,56.7,0,0,1,10,19.52q31.34,15.45,63,30.07c21.47,9.9,44.32,26,64,12.92-21.3-49.22-18.83-93-8-142.81,12.66-58.44,14.22-119.29,27.73-178.08.94-4.08,1.68-8,2.37-11.65-4.26-50.68-6.17-98.23-6.92-137.14a428.8,428.8,0,0,1-56.32,4.5,413,413,0,0,1-82.69-7.2c-1.53,22.24-3.45,47.13-5.52,73.34q7.63,5.31,15.54,10.24a74.56,74.56,0,0,1,34.73,73.29q-9.08,66.74-23.6,132.59C1309.76,2309,1299.31,2346.3,1277.21,2373.87Z"/><path class="cls-17" d="M1341.23,548.91A50.67,50.67,0,0,0,1351,566c16.37,19.07,46.1,26.92,72.37,25,33.05-2.46,61.83-6,93-17.37,63.52-23.16,59.6-109,35.92-160.29-17.36-37.68-62.9-59.92-103.3-50.46-13.16-5.63-27.84-2.27-40.24,4.89-20.82,12-42.36,25.52-53.43,46.84a83.41,83.41,0,0,0-7.12,20.16c-2.08,9.16-3.09,18.67-4.05,28q-2,20.06-4.11,40.12l-.39,3.84c-.09.86-.18,1.71-.26,2.57C1338,522.58,1337,536.26,1341.23,548.91Z"/><path class="cls-20" d="M1341.23,548.91A50.67,50.67,0,0,0,1351,566c5.65.17,11.12-2.36,15.5-5.93s7.82-8.19,11.13-12.8l2.07-11.76c1-10,6.41-18.85,10.49-28,5.54-12.41,11-26.08,11.87-39.64l-.29-.17-.39-.12c-6.24-2.1-11-8.42-17.86-7.38.49-.07-3.72,25.37-4.37,27.19-5.56,15.58-6.44,31-16.05,45.52a66.71,66.71,0,0,1-20.69-24.16c-1,.21-2,.38-3.06.53C1338,522.58,1337,536.26,1341.23,548.91Z"/><path class="cls-24" d="M1637.72,2539.54c4.82,6.94,23.11,10.58,44.33,12.43,36.64,3.16,82,.94,82,.94l88.84,14.55L1941,2566l68-25s5.6-19.65-14.77-27.88-70.8-14.32-105-31.38c-14.35-7.18-28.44-15.35-41.08-23.25l-2-1.23c-9.32-5.87-17.82-11.56-25-16.54-14.51-10-23.7-17.22-23.7-17.22s-15.36,37.36-60.28,41.27-83-38.3-85.14-39C1633.86,2431.82,1624.61,2520.62,1637.72,2539.54Z"/><path class="cls-34" d="M1633.58,2528.37c1,4.76,2.36,8.61,4.14,11.17,4.82,6.94,23.11,10.58,44.33,12.43a375,375,0,0,0,56.86-19.1,367.73,367.73,0,0,0,90.42-55.17c2.35-1.95,4.68-4,7-6.1,1.1-1,2.19-2,3.25-3.11,1.69-1.69,3.33-3.43,4.88-5.23,1.34-1.56,2.63-3.17,3.83-4.83.62-.85,1.23-1.73,1.79-2.61-.69-.41-1.36-.84-2-1.27-.55.9-1.12,1.78-1.72,2.65q-1.87,2.81-3.93,5.47l-1.3,1.64c-1.6,2-3.28,4-5,5.83a105,105,0,0,1-8.55,8.19l-1.92-11.71-.79-4.8-.92-5.6-.46-2.77-2.1-12.79c-1.3-.89-2.56-1.78-3.77-2.63-1.71-1.19-3.33-2.34-4.84-3.43-9.44-6.76-15.09-11.16-15.09-11.16s-15.36,37.36-60.28,41.27-83-38.3-85.14-39C1636.35,2431,1627.29,2498.05,1633.58,2528.37Z"/><path class="cls-35" d="M1869.69,2485.61c-1.48,3.35-.32,7.45,2.6,9.15s6.52.38,8-3,.32-7.45-2.6-9.15S1871.19,2482.26,1869.69,2485.61Z"/><path class="cls-35" d="M1853.17,2476a7.29,7.29,0,0,0,2.6,9.15c2.93,1.71,6.51.37,8-3a7.29,7.29,0,0,0-2.6-9.16C1858.24,2471.31,1854.65,2472.64,1853.17,2476Z"/><path class="cls-35" d="M1836.65,2466.36c-1.49,3.35-.33,7.45,2.6,9.16s6.52.37,8-3,.32-7.45-2.61-9.15S1838.14,2463,1836.65,2466.36Z"/><path class="cls-35" d="M1820.13,2456.74c-1.49,3.35-.33,7.46,2.6,9.15s6.51.38,8-3a7.3,7.3,0,0,0-2.61-9.15C1825.21,2452.06,1821.62,2453.39,1820.13,2456.74Z"/><path class="cls-35" d="M1803.61,2447.12a7.32,7.32,0,0,0,2.6,9.16c2.93,1.7,6.52.36,8-3s.32-7.45-2.61-9.16S1805.1,2443.77,1803.61,2447.12Z"/><path class="cls-36" d="M1878.94,2472.68c1.7.92,3.42,1.84,5.15,2.74l-6.13,13.76a2.8,2.8,0,0,1-2.66,1.77,2.5,2.5,0,0,1-1.16-.34,3.49,3.49,0,0,1-1.24-4.37Z"/><path class="cls-36" d="M1862.31,2463.28q2.52,1.48,5.06,2.95l-5.94,13.33a2.77,2.77,0,0,1-2.65,1.77,2.52,2.52,0,0,1-1.16-.35,3.48,3.48,0,0,1-1.24-4.37Z"/><path class="cls-36" d="M1839.55,2468.49a3.34,3.34,0,0,0,1.56,2.87,2.33,2.33,0,0,0,1.16.34,2.77,2.77,0,0,0,2.65-1.77l1.93-4.33,2.8-6.3,1.3-2.91-.9-.57c-.69-.41-1.36-.84-2-1.27l-2-1.29-1.3,2.92-2.87,6.48-.74,1.65-1.19,2.68A3.43,3.43,0,0,0,1839.55,2468.49Z"/><path class="cls-36" d="M1829.87,2442.72l4.91,3.29-6.37,14.3a2.82,2.82,0,0,1-2.66,1.78,2.57,2.57,0,0,1-1.17-.36,3.48,3.48,0,0,1-1.24-4.36Z"/><path class="cls-36" d="M1814,2431.68q2.28,1.64,4.84,3.43l-6.93,15.58a2.81,2.81,0,0,1-2.66,1.77,2.55,2.55,0,0,1-1.17-.35,3.49,3.49,0,0,1-1.24-4.36Z"/><path class="cls-36" d="M1775.42,2583.16c34.86,2.58,69.22,5.05,93.8,6.66,55.87,3.66,111.35-.68,139.61-3.62,11.26-1.16,23-37.46.09-49-5,.64-70.65,9.55-137.93,5.14-72.56-4.75-225.29-16.62-233.65-17.31-19.86,13.91-3.11,47.35-3.11,47.35C1635.3,2572.5,1706.37,2578,1775.42,2583.16Z"/><path class="cls-39" d="M1529.45,589c-.28.07-12.47,35-13.87,37.61a105.05,105.05,0,0,1-16.16,23c-.12.13-.24.27-.37.4l-.47.48a76.22,76.22,0,0,1-40.78,21.93c-1.1.2-2.2.37-3.31.51-14.83,1.87-30-4.13-42.33-12-11.78-7.55-21.52-17-28.6-29.17-1.24-2.1-2.38-4.26-3.44-6.52-.34-.68-.67-1.37-1-2.09A220.22,220.22,0,0,1,1366.9,589s-36-23.43-20.46-57a55.54,55.54,0,0,1,5.49-9.28l1.84-8.44.09-.44L1366,457.84l7.29-33.56s72.71-33.15,81.27-27.81,51.33,27.81,57.75,27.81,17.11,15,17.11,15v81.27a60.29,60.29,0,0,1,7.68-3.23c.13,0,.25-.1.39-.14,8.17-2.74,20-4.66,22.87,5.71a17.84,17.84,0,0,1,.6,3.55C1562.6,548.05,1565.27,584.16,1529.45,589Z"/><path class="cls-39" d="M1400.84,655.52c-1.14-1.11-2.24-2.29-3.3-3.49C1398.6,653.23,1399.7,654.4,1400.84,655.52Z"/><path class="cls-40" d="M1528.06,532.68l7.52,13.64a28.07,28.07,0,0,1,5.09-8.59c3.19-3.68,6.8-7.47,10.14-10.91a14.78,14.78,0,0,1,9.58-4c-2.9-10.37-14.71-8.45-22.87-5.71a18.58,18.58,0,0,0-2.43,2A25.33,25.33,0,0,0,1528.06,532.68Z"/><path class="cls-40" d="M1353.86,513.78a59.43,59.43,0,0,0,5.88,13,13.29,13.29,0,0,0,9.62-2.22c7.37-5.18,10-18,12.55-26,2.62-8.34,1.87-17.26,4.66-25.45,3.52-10.35,20.16,2.58,26.55,3.39a222.67,222.67,0,0,0,26.57,1.74c10.44.07,20.91.86,31.27-.53a134.38,134.38,0,0,0,23.1-5.17c3.83-1.22,16.29-9.13,19.56-3.93,1.24,2,0,9.05.08,11.55q.33,6.67,1.29,13.3a138.52,138.52,0,0,0,16.76,48.75l5.38-24.88a60.29,60.29,0,0,0-7.68,3.23V452.67A30.34,30.34,0,0,0,1516.79,442c-5.86-2.55-12.41-2.91-18.81-3.13-14.09-.47-28.18-.38-42.27-.11-21.35.4-42.91,1.23-63.6,6.58-8.08,2.08-16.11,4.91-22.83,9.86a37.92,37.92,0,0,0-3.26,2.67Z"/><path class="cls-39" d="M1434.76,671.81c-.5-.08-1-.18-1.54-.28l.77.14C1434.25,671.73,1434.5,671.77,1434.76,671.81Z"/><path class="cls-39" d="M1417.82,665.58a3.44,3.44,0,0,0,.39.24l.12.06A4.27,4.27,0,0,1,1417.82,665.58Z"/><path class="cls-39" d="M1436.55,672.09l.72.1.89.08Z"/><path class="cls-39" d="M1417.28,665.28l.93.54.12.06a4.27,4.27,0,0,1-.51-.3Z"/><path class="cls-17" d="M1337.59,490.55a47.27,47.27,0,0,0,4.8,18.19,49.67,49.67,0,0,0,17.68-7.42c7.55-5.08,8.87-12,10.47-20.7.79-4.19,2.26-8.2,3-12.39.31-1.88,2.3-17.12,1.44-17.74a286,286,0,0,0,26.82,17.2c7.28,2.39,15,3,22.63,3.5,26,1.57,54.9,1.07,78.49-11.54.44-.22.87-.46,1.3-.7,3.41-1.9,8-7.16,11.92-4.74,2.77,1.7,3.4,15.51,4,18.74,2.45,13.58,4.33,27.28,4.08,41.12-.22,11.81,6.36,23.07,9.26,34.6,3.62-3.63,4.94-8.87,6.51-13.75.31-.95.64-1.9,1-2.85.12-.32.26-.64.39-1s.27-.63.42-.93a8.68,8.68,0,0,1,.45-.92,10,10,0,0,1,.49-.9,16.8,16.8,0,0,1,1.08-1.7,9.12,9.12,0,0,1,.6-.79l0,0a6.42,6.42,0,0,1,.54-.63l.25-.27c.1-.11.22-.23.33-.33a5.76,5.76,0,0,1,.45-.42.35.35,0,0,1,.12-.1,12.2,12.2,0,0,1,3-2,30.82,30.82,0,0,1,8.74-.74c-.22-.8-.43-1.59-.62-2.39-.24-1-.46-2-.67-3-1.34-6.35-2.23-12.41-5-19.64,2.89-3.42,1.72-8.55.4-12.83q-7.1-23-14.22-46c-3.08-9.94-6.26-20.12-12.51-28.43-11-14.69-29.78-21.28-47.82-24.74a214.14,214.14,0,0,0-45.61-3.76c-16.2.4-32.8,2.8-47,10.72-27.24,15.24-43.09,48.89-46.64,80.41A117.82,117.82,0,0,0,1337.59,490.55Z"/><path class="cls-40" d="M1346.44,531.94l.17,0a13.1,13.1,0,0,1,15.91,1.49l-.46-5.84a12.42,12.42,0,0,0-4.68-11.58,11.5,11.5,0,0,0-3.61-1.83l-1.84,8.44A55.14,55.14,0,0,0,1346.44,531.94Z"/><path class="cls-20" d="M1342.39,508.74a66.71,66.71,0,0,0,20.69,24.16c9.61-14.53,10.49-29.94,16.05-45.52.65-1.82,4.86-27.26,4.37-27.19,6.89-1,11.62,5.28,17.86,7.38l.39.12a286,286,0,0,1-26.82-17.2c.86.62-1.13,15.86-1.44,17.74-.69,4.19-2.16,8.2-3,12.39-1.6,8.68-2.92,15.62-10.47,20.7A49.67,49.67,0,0,1,1342.39,508.74Z"/><path class="cls-20" d="M1502.87,459.65c.44-.22.87-.46,1.3-.7,3.41-1.9,8-7.16,11.92-4.74,2.77,1.7,3.4,15.51,4,18.74,2.45,13.58,4.33,27.28,4.08,41.12-.22,11.81,6.36,23.07,9.26,34.6,3.62-3.63,4.94-8.87,6.51-13.75.31-.95.64-1.9,1-2.85l.39-1c.14-.32.27-.63.42-.93s.29-.62.45-.92.32-.6.49-.9c.33-.58.7-1.15,1.08-1.7l.62-.81c.18-.21.35-.42.54-.63l.25-.27c.1-.11.22-.23.33-.33a5.76,5.76,0,0,1,.45-.42.35.35,0,0,1,.12-.1,12.2,12.2,0,0,1,3-2c1.46-.66,3.51-.63,5.07-.72,2-.12,4.87-.62,6.18,1.27-.51-2.06-1.06-4.67-2.83-6-2.18-1.62-4.59-3-6.88-4.44-4.32-2.79-8.61-5.83-11.6-10.09a23.94,23.94,0,0,1-3.23-6.55c-4.25-13.31-5.07-30.67-5.4-44.65a139,139,0,0,1-23.88,3Z"/><path class="cls-39" d="M1484.27,768.52c-49.65,37.51-116.9-11.44-109.31-68.78,1.81-13.76,3.45-27.37,4.89-40.91.13-1.25.26-2.48.38-3.73.07-.56.12-1.14.18-1.7.19-1.78.37-3.57.55-5.35s.36-3.67.52-5.49c.17-1.58.31-3.14.45-4.71.18-2.06.37-4.1.54-6.14,0-.54.09-1.06.13-1.6.21-2.32.39-4.65.57-7,30.18,65,73.32,47.11,73.32,47.11a80.58,80.58,0,0,0,11.55-1.82,72.43,72.43,0,0,0,31-15.9,1.21,1.21,0,0,0,0,.19c0,1,.08,1.95.13,2.92l.09,2c0,1.09.12,2.16.18,3.23s.13,2.33.2,3.5q.41,6.27.94,12.52c.12,1.49.26,3,.38,4.44s.27,3.1.42,4.65c.05.59.11,1.19.16,1.79.12,1.33.26,2.66.38,4,.45,4.82.92,9.61,1.35,14.42C1505.24,727.81,1503.14,754.25,1484.27,768.52Z"/><path class="cls-40" d="M1501.89,687.75l-.38,0a33.82,33.82,0,0,1-7.07.2c-16.29-1.17-33.16-.08-49.38-3.55-23-4.92-46.75-13.77-64.83-29.35.07-.56.12-1.14.18-1.7.19-1.78.37-3.57.55-5.35a136.87,136.87,0,0,1,2.6-16.32c7.08,12.12,16.82,21.62,28.6,29.17,12.28,7.87,27.5,13.87,42.33,12a9.76,9.76,0,0,0,3.31-.51,76.22,76.22,0,0,0,40.78-21.93c1.32,8.93,1.52,17.79,2.35,26.86.14,1.54.27,3.09.42,4.64C1501.52,683.89,1501.71,685.82,1501.89,687.75Z"/><path class="cls-3" d="M1119.11,1044.51c6,8.87,15.58,15.39,27.26,20.12,42.06,17,111.4,10.84,139.74,7.31,1.8-.21,3.42-.42,4.87-.62,5-.67,7.79-1.14,7.79-1.14h0l2.62-.65,305.53-75.35,2.28-.56,18.12-4.47,29.12-7.19c9.51-4.08,22-12.89,33-22.38,4.57-3.94,8.85-8,12.56-11.87,8.43-8.84,13.78-16.75,12.17-20.28-4-8.82-48.13-166-70.58-174.84-15.27-6-75.94-34.8-113.15-52.6-15.11-7.22-26.35-12.64-29.13-14q.47,5.14,1,10.27l.93,9.93c2,21.61-.11,48-19,62.31-42.81,32.35-98.7.41-108.42-45.75a68,68,0,0,1-.9-23s-15.44,5.78-37.47,14.5c-44.59,17.65-116.15,47.35-141.37,65.59C1158.42,807.12,1119.11,1044.51,1119.11,1044.51Z"/><path class="cls-41" d="M1291,1071.32c5-.67,7.79-1.14,7.81-1.15s1.1-.5,2.7-1.32c0,.23-.06.45-.08.67l305.53-75.35,2.28-.56c5.12-5.7,10.51-10.87,16.28-12.19.52,2.6,1.12,5.18,1.84,7.72l29.12-7.19c9.51-4.08,22-12.89,33-22.38.32-1.57.66-3.17,1-4.78A789.23,789.23,0,0,1,1645,869c-6.17-13.61-8.61-28-13.85-41.57-5.37-14-9.81-1.23-19.76-10.95-8.76-8.57-12.9-18.39-20.22-27.58-8.92-11.23-18.2-21.63-26.09-33.72-11.87-18.21-22.27-37.37-34.64-55.2-15.11-7.22-26.35-12.64-29.13-14q.47,5.14,1,10.27c4.39,8.6,8.11,17.59,9.62,20.87,6.87,15,12.26,30.59,18,46s11.47,30.79,19.17,45.3c3.52,6.64,25.27,30.47,19.13,37.9a3.72,3.72,0,0,1-2.47,1c-45.35,6.64-91.58,12.59-137.14,7.29-8-.93-9.92-1.17-15.1-7.53-13.41-16.41-16.18-38.68-23.81-57.68a303.77,303.77,0,0,1-14.7-47.16c-1.56-6.9-.69-13.24.88-19.53a68,68,0,0,1-.9-23s-15.44,5.78-37.47,14.5c-.89,16.1,3.65,33.32,7,48.16,6.77,29.65,11.34,60.07,16.7,89.83,6,33.41,8.52,68.18,2.49,101.77-4.6,25.68-16.52,48.76-30.44,70.54-5.46,8.53-11.44,22.16-18.41,12-6.74-9.8-6.57-36.1-6.47-47.74.29-34.49,16.28-63.52,23.68-96.58-3.32,7.71-9.66,14.72-14.15,22.1-6.47,10.62-9.37,23-11.36,35.29C1300,990.07,1302.09,1032.11,1291,1071.32Z"/><path class="cls-16" d="M1368.92,700.61l6-.86A6.31,6.31,0,0,0,1368.92,700.61Z"/><path class="cls-16" d="M1784.78,1790.4s-23.34,26.86-64.53,61c-8.77,7.26-18.34,14.83-28.66,22.55-34.71,25.95-77.95,53.46-127.72,75.34a510.27,510.27,0,0,1-104.64,33.5q-11.76,2.37-23.81,4.12a428.66,428.66,0,0,1-56.32,4.5,413,413,0,0,1-82.68-7.2,426,426,0,0,1-60.22-16h-16s6.41-203.24,24-387.38q3-31.57,5.24-60.18c11.53-147.75,8.3-234.77,7.6-241.86-.69-6.91,30.7-156.37,39.46-197.91,1.42-6.72,2.25-10.62,2.25-10.62a121.36,121.36,0,0,0,19.37-11.7,157.66,157.66,0,0,0,28.66-26.62c19-22.78,36-56.72,33.76-104.44-4.81-104.26-47-202.9-38.34-223l26.7-3.84c-6.43,5.06-10.83,28.65,29.29,129l6.41,28.88c.94,4.2,62.6,3.95,67.45,4,19.21.37,38.54.18,57.66-1.74,16.84-1.7,34.66-8.6,51.37-8.27-1.67-7.63-7.34-13.64-11.5-20.26-4.74-7.56-7.58-16.12-10.61-24.52A551.8,551.8,0,0,0,1525.53,732c-3.81-7.07-19.17-43.52-24.83-46.29L1522,695.94s75.89,120,99.14,136.85c20.37,14.74,34.58,103.91,35.65,149a147.25,147.25,0,0,1-.35,16.14.13.13,0,0,0,0,.06c-1.34,14.42-2.69,35.9-1.44,72.91.43,13.23,1.21,28.46,2.44,46q.36,5.28.79,10.83c3.78,49.88,11,117.49,23.88,210.34q3.09,22.32,6.65,44.47c3.51,22,7.32,43.72,11.31,65.06C1735,1634.37,1784.78,1790.4,1784.78,1790.4Z"/><path class="cls-18" d="M1577.32,1369.77c-12.65-7.89-15.66-18.06-21.53-30.51s-13.18-22.26-16.16-35.81c-1-4.65-2.05-9.41-1.52-14.15,2.42-21.64,2.72-43.33,2.34-65.17q-.59-33.42-.56-66.84a33.08,33.08,0,0,0-1.05-9.83c-2.73-8.77-11.25-13.87-15.93-21.44-5-8-4.92-17.49-3.06-26.56.84-4-1.1-7.49.12-11.32,3.06-9.66,12.37-10.68,16.73-18.1,4.8-8.16,1.44-21-.72-29.36-1.51-5.86-6.09-9.81-8.32-15.51s-3.58-11.66-5.37-17.39c-.77-2.45-6.78-27.06-9.39-27.07,27.75-1,61.43-1,86.69,11.91,22.76,11.64,26.4,21.22,52.33,7a18.46,18.46,0,0,1,4.55-1.71.13.13,0,0,0,0,.06c-1.33,14.42-2.68,35.9-1.44,72.91.44,13.23,1.22,28.45,2.44,46,.24,3.52.51,7.13.79,10.84,3.78,49.88,11,117.49,23.88,210.34q3.11,22.32,6.66,44.46C1650.53,1384.71,1602.78,1385.64,1577.32,1369.77Z"/><path class="cls-18" d="M1566.37,1143.75c.06,11.19-1.33,23.68-2.84,34.42-1.47,10.51-7.55,20.25-9.87,30.69-14.31,64.51-26.07,129.55-37.54,194.61-9.29,28.58-20.1,37.23-42.81,17.85-21-17.87-43.93-33.09-64.28-51.78-38.48-35.34-51.6-75.7-68.65-124.07-13.45-38.14-12.07-75.3-11.22-115.74.51-24,.51-40.76,7.83-64.47,3.4-11,7-22.15,9.81-33.41a156.66,156.66,0,0,1-28.66,26.62,120.53,120.53,0,0,1-19.37,11.71s-.83,3.89-2.24,10.62c-8.77,41.54-40.15,191-39.47,197.91.7,7.09,3.94,94.11-7.59,241.86,65.6,38.22,134,68.45,211.3,86.16-15.25,130.91-48.07,257.22-81.66,384.64a436.56,436.56,0,0,0,80.12-8.62c14.49-64.61,29.83-129.21,43.18-194,8.76-42.42,10.87-98.22,29.85-137.15,7.47-15.34,20.29-30.5,31.37-43.31,5.86-6.81,39.86-35.63,38.2-44.08-4.81-24.4-24.25-32.76-33-52.51-4-8.92-2.14-20.29-1.5-29.87,1.21-18.24,4.09-36.51,6.33-54.64q11.3-91.17,23.69-182.2,6-44.88,12.17-89.71c1.81-13.26,1-20.72,15.26-24.46,12.26-3.22,29,.44,37.44-11.4,9.28-13.07,5.68-39.54,6.67-54.74.23-3.49,5.61-52.89,4.44-52.74-16.84,2.22-31.79,4.69-46.68,12.83-15.18,8.3-27.31,22.07-37.83,35.53-8.46,10.82-18.41,21.36-23.7,34.24-6.34,15.43.34,28.55,1.14,43.92C1566.31,1140.19,1566.36,1142,1566.37,1143.75Z"/><g class="cls-42"><path class="cls-1" d="M1334.23,880.79c-.58,3.88-1.31,7.7-2.16,11.47A24.19,24.19,0,0,0,1334.23,880.79Z"/></g><path class="cls-39" d="M1655,1070.92l36.73,58.61s44.11-16,54.54-59.94a0,0,0,0,1,0,0c10.41-43.89-10.44-66.75-25.68-84.39-4.87-5.65-9.59-14.91-13.73-24.9-1.72-4.13-3.35-8.39-4.85-12.57-12.49,13.1-31.77,28.21-45.21,34.1a145.16,145.16,0,0,1-.37,16.2C1655.13,1012.43,1653.78,1033.9,1655,1070.92Z"/><path class="cls-40" d="M1655,1070.92l36.73,58.61s44.11-16,54.54-59.94a0,0,0,0,1,0,0,139.38,139.38,0,0,0-24.93-34.35c-4.31-4.36-33-35.69-39.83-23.06,6-11.13,2.94-25.57,10.17-36,2.11-3,8.39-8.87,15.18-15.9-1.72-4.13-3.35-8.39-4.85-12.57-12.49,13.1-31.77,28.21-45.21,34.1a145.16,145.16,0,0,1-.37,16.2C1655.13,1012.43,1653.78,1033.9,1655,1070.92Z"/><path class="cls-16" d="M1611.75,1043.44c-3.55,6.19-41.5,46.79-43.51,54.81s16.85,28.47,43.51-12S1611.75,1043.44,1611.75,1043.44Z"/><path class="cls-39" d="M1146.37,1064.63c.44,7.33,1,14.81,1.53,22.37,3.94,52.29,10.87,108.37,19.33,148.39,12.41,58.63,87.18,148.16,130.54,196.19,18.32,20.3,31,33.19,31,33.19s63-33.68,44.83-66.2-76.47-176.81-85.17-190.45c-6.47-10.14-4.72-91.61-2.35-136.18C1257.77,1075.47,1188.43,1081.65,1146.37,1064.63Z"/><path class="cls-26" d="M1343.14,2372.65s28.87,9.62,33.78,0l128.74-705,33.06-181,65.71-359.81c-7.31.84-19.85-5.36-9.17-43.71l-5-.93-72.58,379-40.29,210.38Z"/><path class="cls-28" d="M1213,2606c2.72,4.28,7.38,8.22,13.29,11.79,1.2.73,2.46,1.44,3.75,2.14,2.31,1.23,4.76,2.42,7.32,3.56a198.47,198.47,0,0,0,22.25,8.15c1.26.39,2.52.76,3.8,1.14,2.53.74,5.08,1.45,7.62,2.13,4.67,1.24,9.33,2.38,13.86,3.41,1.38.31,2.74.62,4.1.91,1.66.36,3.31.72,4.91,1.05,11,2.3,20.7,3.92,27.14,4.93,5.18.79,8.25,1.19,8.25,1.19l29.09-81.84,5.13-14.4-2.08,9.18L1343.14,2640a49.77,49.77,0,0,0,12.24,11.59,71,71,0,0,0,21.82,9.5c2.61.66,5,1.15,7.1,1.51a68.06,68.06,0,0,0,8,.93s15.57-72,22.53-112.29c2.43-14.05,3.81-24.24,3.12-26.17,0,0-33.28-35.44-67.59-59.79-28.74-20.41-58.22-33-69.37-10.43-.34.69-.68,1.41-1,2.17-6,14.84-13.64,32.48-21.6,50.36C1236.88,2555.86,1213,2606,1213,2606Z"/><path class="cls-19" d="M1255.46,2476.26,1417.77,2540a9.83,9.83,0,0,0,13.3-7.53c5-30.27,11.13-111.56-54.15-159.82h-33.78s-61.22,26.62-87.68,103.61Z"/><path class="cls-21" d="M1258.45,2507.37c48.77,22.31,104.12,34.73,156.42,43.86,2.43-14.05,3.81-24.24,3.12-26.17,0,0-33.28-35.44-67.59-59.79a217.3,217.3,0,0,0-41.59-8.79,257.71,257.71,0,0,0-27.78-1.64c-.34.69-.68,1.41-1,2.17C1274,2471.85,1266.41,2489.49,1258.45,2507.37Z"/><path class="cls-8" d="M1267.24,2480.85l140.5,55.17s27-101.85-41.63-163.37h-23s-54.72,23.79-83.05,91.45A12.75,12.75,0,0,0,1267.24,2480.85Z"/><g class="cls-7"><path class="cls-21" d="M1361.38,2559.35,1343.14,2640a49.77,49.77,0,0,0,12.24,11.59c2.79-22.12,5.23-44.26,8.26-66.41,1-7-.45-28.22,3-34.45Q1363.95,2555,1361.38,2559.35Z"/></g><g class="cls-7"><path class="cls-21" d="M1321,2645.22c5.18.79,8.25,1.19,8.25,1.19l29.09-81.84A503,503,0,0,0,1321,2645.22Z"/></g><g class="cls-7"><path class="cls-21" d="M1263.36,2632.79c2.53.74,5.08,1.45,7.62,2.13q17.63-44.91,32.26-90.89C1287.43,2570.57,1275.48,2605.13,1263.36,2632.79Z"/></g><g class="cls-7"><path class="cls-21" d="M1230,2619.94c2.31,1.23,4.76,2.42,7.32,3.56q19.32-46.26,36-93.37C1257,2562.47,1243.7,2593.28,1230,2619.94Z"/></g><g class="cls-7"><path class="cls-21" d="M1377.2,2661.08c2.61.66,5,1.15,7.1,1.51q6.54-43.74,10.91-87.62C1388.09,2605.74,1383,2634.81,1377.2,2661.08Z"/></g><g class="cls-7"><path class="cls-21" d="M1288.94,2639.24c1.66.36,3.31.72,4.91,1.05q11.07-28.2,21.15-56.69C1303.93,2600.31,1297.62,2621.14,1288.94,2639.24Z"/></g><path class="cls-27" d="M1477.42,1666.75a104.61,104.61,0,0,0,14.61-1.1,128.52,128.52,0,0,0,13.63-2.77l33.06-181q-3.56-5.79-7.63-11.19a86.16,86.16,0,0,0-13.38-14.29Z"/><path class="cls-40" d="M1146.37,1064.63c.44,7.33,1,14.81,1.53,22.37,13.24,6.67,28.21,10.42,42.89,13.17,24.25,4.55,52.23-1.46,65.58,23.64,10,18.78,7.35,31.46,11.42,51.26a163.31,163.31,0,0,0,22.16,54.78c15.1,23.65,17.69,47.73,25.61,73.86,7.72,25.47,24.21,35.36,14,62.54-8.57,22.68-17.86,45.79-31.74,65.33,18.32,20.3,31,33.19,31,33.19s63-33.68,44.83-66.2-76.47-176.81-85.17-190.45c-6.47-10.14-4.72-91.61-2.35-136.18C1257.77,1075.47,1188.43,1081.65,1146.37,1064.63Z"/><path class="cls-16" d="M1376.92,1360.1s-79.22,81.68-78.69,99.32c0,0,91.71,68.44,118.57,96.25s85.68,63.09,85.68,63.09l28.87-5.35,7.49-11.76s21.92-3.85,16-20.91c0,0,17.35-1,13.22-24,0,0,15.65-19.08-6.81-40.55s-36.36-30.56-54.54-32.16-50.26-15-59.88-26.74S1382.36,1400.33,1376.92,1360.1Z"/><path class="cls-18" d="M1546.32,1601.36a12.34,12.34,0,0,1-5.57,2.75,18,18,0,0,1-6.38.15,26.48,26.48,0,0,1-11.6-5,64.74,64.74,0,0,1-8.89-8.32c-2.7-3-5.28-5.85-8.21-8.68a38.23,38.23,0,0,1,10.35,6.38c3.13,2.52,6,5.14,9.12,7.4a33.6,33.6,0,0,0,9.91,5.12A18.34,18.34,0,0,0,1546.32,1601.36Z"/><path class="cls-18" d="M1559.93,1579.84a26.77,26.77,0,0,1-8-2.44,37.22,37.22,0,0,1-13.05-10.29,27.13,27.13,0,0,1-4.23-7.23c2.32,1.64,4.39,3.35,6.47,5l6.18,5,6.25,4.86C1555.65,1576.36,1557.79,1578,1559.93,1579.84Z"/><path class="cls-18" d="M1572.68,1558.34a44.76,44.76,0,0,1-7.5-3.41,75.65,75.65,0,0,1-6.83-4.33,74.51,74.51,0,0,1-6.34-5,44,44,0,0,1-5.67-6,43.94,43.94,0,0,1,7.5,3.4,76.78,76.78,0,0,1,13.16,9.37A44.75,44.75,0,0,1,1572.68,1558.34Z"/><path class="cls-37" d="M1837.19,2445.37s-14.81,9.83-36.87,21.67c-49.57,26.6-135.73,63.28-172.72,21.11,0,0-24.31-224.89-47.35-411.84-5.66-46-11.24-89.59-16.37-127.06a635.74,635.74,0,0,0,95.5-52.61,724.85,724.85,0,0,0,60.87-45.29c1.26,17.91,3,40.39,5.21,66.15C1738.66,2068.68,1770.45,2332.64,1837.19,2445.37Z"/><path class="cls-38" d="M1720.26,1851.36c-38.22,31.63-91.82,69.5-156.38,97.89,5.13,37.46,10.71,81.11,16.37,127.06,25.41-9.38,45.55-31,64.67-50.17,26.42-26.45,54.07-54.81,70-88.9,3.11-6.66,6.73-13.21,10.54-19.74C1723.22,1891.75,1721.51,1869.26,1720.26,1851.36Z"/><path class="cls-24" d="M1140.3,2569.85a121.81,121.81,0,0,0,37.11-11.45c19.48-9.51,36.54-23.4,51.79-38.8a86.91,86.91,0,0,0,7.6-8.55c-26.3,12.29-62.75,22.13-81.77,31.91C1133.54,2554,1141.54,2557.3,1140.3,2569.85Z"/><path class="cls-43" d="M1450.72,552c-1.1,4.11-2.11,8.24-3.17,12.36l-1.54,6.18-1.48,6.2c-.13.5-.23,1.09-.33,1.66a11.32,11.32,0,0,0-.21,1.74,15.65,15.65,0,0,0,.18,3.53,13.43,13.43,0,0,0,3,6.39,13.73,13.73,0,0,0,5.69,4c.56.17,1.1.35,1.66.49s1.13.19,1.68.26a7,7,0,0,0,3.33-.38c0-.34,0-.1,0-.17h0l0,0-.09,0-.2-.05-.38-.11-.76-.19-1.46-.52-1.37-.63-1.29-.73a15.22,15.22,0,0,1-4.11-4,16.33,16.33,0,0,1-2.39-5,8,8,0,0,1-.3-1.37,8.45,8.45,0,0,1-.15-1.42,7.61,7.61,0,0,1,0-1.43,14.16,14.16,0,0,1,.18-1.48l1-6.29,1-6.3c.62-4.2,1.29-8.4,1.88-12.61Z"/><path class="cls-20" d="M1371.21,519.09c4.82-7,14.16-9.19,22-10.54a58,58,0,0,1,24.82,1.41c3.11.88,10,1.87,8.71,6.81-1.18,4.37-7.14,3.4-10.39,2.79-5.39-1-11-2.06-16.42-2.7C1389.69,515.66,1381,517.5,1371.21,519.09Z"/><path class="cls-20" d="M1527.79,521.65c-4.42-7.36-13.7-10.13-21.56-12a58.37,58.37,0,0,0-25.1-.12c-3.18.69-10.22,1.26-9.19,6.33.92,4.47,7,3.86,10.3,3.45,5.49-.69,11.15-1.41,16.71-1.71C1509.38,517.05,1518,519.44,1527.79,521.65Z"/><path class="cls-20" d="M1484.5,544.43a7.91,7.91,0,1,0,9-7A8.06,8.06,0,0,0,1484.5,544.43Z"/><path class="cls-20" d="M1399.94,544.2a7.51,7.51,0,1,0,7.57-7.7A7.63,7.63,0,0,0,1399.94,544.2Z"/><path class="cls-44" d="M1387.81,568.71a1.8,1.8,0,1,0,2.3-1.07A1.79,1.79,0,0,0,1387.81,568.71Z"/><path class="cls-44" d="M1382.39,577.49a1.8,1.8,0,1,0,2.31-1.07A1.81,1.81,0,0,0,1382.39,577.49Z"/><path class="cls-44" d="M1394,578.19a1.79,1.79,0,1,0,2.3-1.08A1.79,1.79,0,0,0,1394,578.19Z"/><path class="cls-44" d="M1503.53,573.66a1.65,1.65,0,1,0-.21-2.33A1.66,1.66,0,0,0,1503.53,573.66Z"/><path class="cls-44" d="M1509.44,581.09a1.65,1.65,0,1,0-.21-2.33A1.66,1.66,0,0,0,1509.44,581.09Z"/><path class="cls-44" d="M1513.67,571.24a1.65,1.65,0,1,0-.21-2.33A1.65,1.65,0,0,0,1513.67,571.24Z"/><path class="cls-20" d="M1432.58,624.9c1.83,6.6,7.91,12,14.87,13.71a19.87,19.87,0,0,0,2.65.47l.21,0c10.33,1.47,26.51-4,33.14-12.25a24.85,24.85,0,0,0,4-7.21,25.24,25.24,0,0,0,1.49-8.12c0-.53,0-1.07,0-1.6C1489,609.92,1444.59,624.17,1432.58,624.9Z"/><path class="cls-20" d="M1509.65,537.11a37.6,37.6,0,0,0-3.62-1.88c-1.23-.57-2.49-1.09-3.77-1.57a45.45,45.45,0,0,0-12.17-2.62,14,14,0,0,0-4.27.37,15.49,15.49,0,0,0-4,1.6,11.22,11.22,0,0,0-3.23,2.82l.19.27c1.37-.34,2.63-.67,3.89-.91s2.5-.39,3.74-.52l3.75-.36a24.79,24.79,0,0,1,3.86-.13c1.3.06,2.6.19,3.9.38s2.6.41,3.9.69a56.9,56.9,0,0,1,7.7,2.16Z"/><path class="cls-20" d="M1390.09,537.31a56,56,0,0,1,7.78-1.86c1.31-.23,2.62-.41,3.93-.53a36.62,36.62,0,0,1,3.91-.23,24.58,24.58,0,0,1,3.85.28l3.73.51c1.24.17,2.47.38,3.72.66s2.49.67,3.85,1.07l.2-.27a11.08,11.08,0,0,0-3.12-2.94,15.54,15.54,0,0,0-4-1.76,14.3,14.3,0,0,0-4.25-.54,46.1,46.1,0,0,0-12.26,2.14c-1.3.43-2.58.91-3.84,1.43A39.7,39.7,0,0,0,1390,537Z"/><path class="cls-45" d="M1487.49,619.64a24.85,24.85,0,0,1-4,7.21c-6.63,8.21-22.81,13.72-33.14,12.25l-.21,0a19.87,19.87,0,0,1-2.65-.47,24.85,24.85,0,0,1,5.88-5.92A68.14,68.14,0,0,1,1487.49,619.64Z"/><g class="cls-46"><ellipse class="cls-40" cx="1507.81" cy="572.91" rx="20.25" ry="10.45"/></g><g class="cls-46"><ellipse class="cls-40" cx="1389.91" cy="570.37" rx="20.25" ry="10.45"/></g><path class="cls-47" d="M1531.45,997.27s-20.78,2.54-20.51,7.51c.6,11.43,38.8,8.87,38.8,8.87Z"/><path class="cls-48" d="M1543.18,1004.77s-19.82,4.62-32.24,0c.6,11.43,38.8,8.87,38.8,8.87Z"/><path class="cls-49" d="M1636,1057.85c-1.71-3.41-17.3-7-33.06-24.11a51.65,51.65,0,0,1-13.19-38.45L1572.47,999c20.66,60.19,65.63,76.59,65.63,76.59S1637.7,1061.27,1636,1057.85Z"/><path class="cls-50" d="M1612,1054.54c-7.34-8.58-11.84-17.94-12.9-25.56a52,52,0,0,1-9.38-33.69L1572.47,999c20.66,60.19,65.63,76.59,65.63,76.59s0-1.55-.16-3.72C1630,1070.4,1620.28,1064.17,1612,1054.54Z"/><path class="cls-28" d="M1621,990.62l-2.55,11.9-28.17,4.8a235.16,235.16,0,0,1-2.3,28.5l-18.82-7.29-23.51-9.09-5-1.93-21.35-27.64,69.14-11.79c.11.64.22,1.3.31,1.95l14.52-2.47Z"/><polygon class="cls-48" points="1569.13 1028.54 1568.89 1038.51 1552.06 1037.36 1545.62 1019.44 1569.13 1028.54"/><path class="cls-51" d="M1727.68,1327l-5.36,8.94-119.2,20.33a49.22,49.22,0,0,1-21.89-37.14l-11-138.59-5.5-69,52.44-8.94,43.17,87.63Z"/><g class="cls-52"><path class="cls-22" d="M1660.29,1190.21a55.42,55.42,0,0,1-18.57,4c-11.72.56-23.38-1.91-34.82-4.53q-18.44-4.22-36.72-9.11l-5.5-69,52.44-8.94Z"/></g><polygon class="cls-53" points="1617.85 1104.18 1561.37 1113.82 1565.26 1136.65 1623.71 1116.79 1617.85 1104.18"/><polygon class="cls-28" points="1577.13 1039.68 1547.97 1036.91 1556.94 1123.17 1624.68 1111.62 1577.13 1039.68"/><polygon class="cls-28" points="1560 1118.72 1573.18 1115.38 1556.01 1087.24 1560 1118.72"/><path class="cls-16" d="M1531,1119.75h24.88s.06.42.2,1.16c.72,3.89,3.45,16.36,9.13,18.54,6.49,2.5,29.37.18,31,0-1.37.23-17.86,3.29-13.39,19.69,0,0,27.47-.52,40.43-6.23,5.53-2.43,17.58-10.14,29.38-19.57,2.19-21.77,4-44.74-8.41-63.44-10.72-16.1-25.58-29.73-43.32-37.59-3.06-.2-6.41-.5-10.07-.89a19.94,19.94,0,0,0-15.29,4.77l.65.08,3.34.42,4.55,8.52,2.2,4.1-.58,0a5.58,5.58,0,0,0,.81.91,116.76,116.76,0,0,0-27.4,18.61,7,7,0,0,1-2.09,1.48,10.33,10.33,0,0,1-2.88.63l-.45,0c-2.38.19-5,.06-7.11.45-1,.19-1.93.4-2.9.65-8.36,2.18-16.68,6.94-19.55,15.59-1.46,4.38.69,12.9,6.9,11.36C1518.8,1103.17,1522.32,1113.21,1531,1119.75Z"/><path class="cls-18" d="M1605.59,1100.05a35.63,35.63,0,0,1-5.7,3.7c-2,1.06-4,2.1-6,3.07-4,1.92-8.15,3.67-12.32,5.28s-8.39,3.08-12.66,4.39a112.6,112.6,0,0,1-13.08,3.26,121.05,121.05,0,0,1,12-6.2q6.11-2.79,12.34-5.18t12.6-4.47c2.12-.69,4.27-1.31,6.41-2S1603.46,1100.78,1605.59,1100.05Z"/><path class="cls-18" d="M1596.26,1139.45a39.05,39.05,0,0,1,6.13-4.66,65.46,65.46,0,0,1,6.62-3.63,63.4,63.4,0,0,1,7-2.85,39.11,39.11,0,0,1,7.48-1.82,39,39,0,0,1-6.12,4.66,63.47,63.47,0,0,1-6.62,3.62,64.37,64.37,0,0,1-7,2.85A39.69,39.69,0,0,1,1596.26,1139.45Z"/><path class="cls-18" d="M1608.7,1035.24a17.37,17.37,0,0,1-2.14,2.06c-.38.31-.76.64-1.16.94l-1.21.86c-.8.58-1.63,1.12-2.46,1.66s-1.65,1.09-2.5,1.6c-3.36,2.07-6.74,4.09-10.1,6.12q-2.52,1.53-5,3.1c-1.67,1-3.3,2.1-4.94,3.16s-3.22,2.2-4.82,3.31-3.16,2.25-4.66,3.48-3,2.39-4.44,3.7c-.71.65-1.46,1.26-2.13,1.94l-2,2a23.88,23.88,0,0,0-1.93,2.1l-1.87,2.15a39.51,39.51,0,0,0-3.13,4.62,17.84,17.84,0,0,0-1.91,4.87,7.31,7.31,0,0,0,.45,4.54,8.54,8.54,0,0,0,3.29,3.39,15.4,15.4,0,0,0,2.34,1.15,17.49,17.49,0,0,0,2.47.78l-1.29.24c4.1-2.27,8.15-4.21,12.3-6.11s8.3-3.69,12.51-5.38q12.6-5.13,25.53-9.37c-2,1-4.08,2-6.13,2.94l-6.13,2.92-12.23,5.86c-4.06,2-8.12,3.93-12.12,6s-8.06,4.11-11.8,6.34l-.62.37-.68-.13a19,19,0,0,1-3.18-.89,18.75,18.75,0,0,1-3-1.42,12.33,12.33,0,0,1-4.81-5,11.24,11.24,0,0,1-.84-7,20,20,0,0,1,2.36-6.08,44.39,44.39,0,0,1,3.54-5.1l2-2.3a27.39,27.39,0,0,1,2.09-2.21l2.19-2.11c.73-.7,1.53-1.31,2.29-2,1.52-1.33,3.14-2.52,4.74-3.72.79-.61,1.61-1.18,2.44-1.74l2.48-1.68c1.69-1,3.37-2.12,5.08-3.12,3.41-2,6.89-3.93,10.41-5.72s7.06-3.52,10.57-5.28c1.76-.89,3.53-1.75,5.23-2.71l1.29-.71c.42-.24.83-.51,1.25-.77A17.36,17.36,0,0,0,1608.7,1035.24Z"/><path class="cls-18" d="M1531,1099c3.66-1.54,7.37-2.74,11.09-3.89s7.45-2.15,11.2-3.11,7.5-1.85,11.26-2.72,7.54-1.68,11.43-2.49a48.36,48.36,0,0,1-10.49,5.49,91.86,91.86,0,0,1-11.21,3.59,110.53,110.53,0,0,1-11.51,2.3A73.23,73.23,0,0,1,1531,1099Z"/><path class="cls-18" d="M1600.86,1032.32c17.74,7.86,32.6,21.49,43.32,37.59,12.44,18.7,10.6,41.67,8.41,63.44,15.83-12.67,31.2-28.44,29.71-38.71-2.59-17.91-51.83-64.51-51.83-64.51S1624.1,1033.87,1600.86,1032.32Z"/><path class="cls-16" d="M1656.91,1017.92c11.36-1.56,77.75,49.47,79.31,72.8s-29.55,35.77-29.55,35.77h-42c13-29.85,7.28-67-24.88-80.87,0,0-16.33-11.42-31.1-10.38C1608.7,1035.24,1609.48,1024.42,1656.91,1017.92Z"/><path class="cls-54" d="M1544.26,1119.75h11.57s.06.42.2,1.16a8.26,8.26,0,0,1,.85-1.62c-6-8.52-5.65-17.25-4.25-27,1-7.07.5-14.17,1-21.34-2.38.19-5,.06-7.11.45-1,.19-1.93.4-2.9.65-4.56,1.19-5.11,13.36-5.81,16.72-1.33,6.47-5.85,8-10.51,12.6C1539.35,1089.37,1541.2,1113.05,1544.26,1119.75Z"/><path class="cls-18" d="M1784.78,1790.4s-23.34,26.86-64.53,61c-8.77,7.26-18.34,14.83-28.66,22.55a1663.9,1663.9,0,0,1-6.3-263.07c1-18.67,3.34-99,14.8-163.17C1735,1634.37,1784.78,1790.4,1784.78,1790.4Z"/><path class="cls-38" d="M1837.19,2445.37s-14.81,9.83-36.87,21.67c-12.78-24.76-22.75-51.46-31.51-77.66-53.42-159.76-82.84-326.23-109.43-492.74a724.85,724.85,0,0,0,60.87-45.29c1.26,17.91,3,40.39,5.21,66.15C1738.66,2068.68,1770.45,2332.64,1837.19,2445.37Z"/><path class="cls-24" d="M2218.25,2569.43c4.08,5.89,19.6,9,37.6,10.54,31.08,2.68,69.58.8,69.58.8l75.36,12.34,74.72-1.24,57.71-21.25S2538,2554,2520.7,2547s-60-12.15-89-26.62c-12.17-6.09-24.12-13-34.85-19.71-.55-.36-1.11-.7-1.66-1-7.91-5-15.12-9.8-21.2-14-12.31-8.53-20.11-14.61-20.11-14.61a61.86,61.86,0,0,1-51.13,35c-38.1,3.32-70.39-32.48-72.22-33.08C2215,2478.06,2207.13,2553.38,2218.25,2569.43Z"/><path class="cls-34" d="M2214.74,2560a26.58,26.58,0,0,0,3.51,9.47c4.08,5.89,19.6,9,37.6,10.54a316.69,316.69,0,0,0,48.23-16.2,312.06,312.06,0,0,0,76.69-46.79c2-1.65,4-3.37,5.91-5.18.94-.85,1.86-1.73,2.76-2.63,1.44-1.44,2.83-2.91,4.14-4.44,1.14-1.32,2.23-2.69,3.24-4.09.53-.73,1-1.47,1.53-2.22-.59-.35-1.15-.71-1.73-1.08-.47.76-1,1.51-1.46,2.25-1.06,1.59-2.18,3.13-3.34,4.64-.36.47-.73.93-1.1,1.39q-2,2.55-4.27,5a86.39,86.39,0,0,1-7.25,6.94l-1.62-9.93-.68-4.07-.78-4.75-.39-2.35-1.77-10.85c-1.11-.76-2.18-1.51-3.21-2.23-1.45-1-2.82-2-4.1-2.91-8-5.73-12.8-9.47-12.8-9.47a61.86,61.86,0,0,1-51.13,35c-38.1,3.32-70.39-32.48-72.22-33.08C2217.09,2477.36,2209.4,2534.24,2214.74,2560Z"/><path class="cls-35" d="M2415,2523.68a6.22,6.22,0,0,0,2.21,7.77c2.48,1.45,5.53.32,6.78-2.52a6.2,6.2,0,0,0-2.2-7.77C2419.31,2519.72,2416.27,2520.85,2415,2523.68Z"/><path class="cls-35" d="M2401,2515.52a6.19,6.19,0,0,0,2.2,7.77c2.48,1.45,5.52.31,6.78-2.52a6.18,6.18,0,0,0-2.2-7.77C2405.3,2511.55,2402.25,2512.69,2401,2515.52Z"/><path class="cls-35" d="M2387,2507.36a6.2,6.2,0,0,0,2.2,7.77c2.5,1.44,5.53.31,6.8-2.53a6.19,6.19,0,0,0-2.21-7.76C2391.28,2503.39,2388.24,2504.52,2387,2507.36Z"/><path class="cls-35" d="M2373,2499.2a6.17,6.17,0,0,0,2.21,7.76c2.48,1.46,5.52.32,6.79-2.52a6.19,6.19,0,0,0-2.22-7.76C2377.27,2495.23,2374.23,2496.36,2373,2499.2Z"/><path class="cls-35" d="M2359,2491a6.2,6.2,0,0,0,2.2,7.77c2.49,1.44,5.53.31,6.79-2.53a6.18,6.18,0,0,0-2.21-7.76C2363.26,2487.06,2360.22,2488.2,2359,2491Z"/><path class="cls-36" d="M2422.85,2512.72q2.16,1.17,4.37,2.33l-5.2,11.67a2.38,2.38,0,0,1-2.26,1.5,2,2,0,0,1-1-.3,2.94,2.94,0,0,1-1.05-3.7Z"/><path class="cls-36" d="M2408.75,2504.75l4.29,2.5-5,11.3a2.36,2.36,0,0,1-2.25,1.51,2.31,2.31,0,0,1-1-.3,3,3,0,0,1-1.05-3.7Z"/><path class="cls-36" d="M2389.44,2509.17a2.84,2.84,0,0,0,1.32,2.43,2,2,0,0,0,1,.29,2.33,2.33,0,0,0,2.25-1.5l1.64-3.67,2.38-5.35,1.1-2.47-.76-.48c-.59-.35-1.15-.71-1.73-1.08l-1.73-1.09-1.11,2.47-2.43,5.5-.63,1.4-1,2.27A2.86,2.86,0,0,0,2389.44,2509.17Z"/><path class="cls-36" d="M2381.23,2487.31c1.34.91,2.74,1.84,4.16,2.78l-5.4,12.14a2.39,2.39,0,0,1-2.26,1.51,2.2,2.2,0,0,1-1-.31,3,3,0,0,1-1-3.7Z"/><path class="cls-36" d="M2367.75,2478l4.1,2.9-5.87,13.22a2.39,2.39,0,0,1-2.26,1.5,2.13,2.13,0,0,1-1-.29,3,3,0,0,1-1.05-3.71Z"/><path class="cls-36" d="M2335,2606.42c29.58,2.2,58.72,4.29,79.56,5.66,47.4,3.1,94.45-.58,118.42-3.07,9.55-1,19.47-31.78.08-41.53-4.23.54-59.93,8.1-117,4.36-61.55-4-191.09-14.1-198.19-14.69-16.84,11.8-2.63,40.16-2.63,40.16C2216.2,2597.38,2276.48,2602.08,2335,2606.42Z"/><path class="cls-34" d="M1749.68,2586.15c20.84,4.93,39.75,10.21,60,15.51,24.16-2.86,50-3,73.9-7.18s49.83-15.39,72.5-18.86,91.6-5.09,102.71-22.85.15-83.12-17.72-91.82c-20.09,17.88-39.15,36.74-66.25,36.93s-39.28-12-52.16-30.87a708.09,708.09,0,0,1-77.12,58.91,102.38,102.38,0,0,1-13.59,7.45c-22.31,10.42-53.22,18.77-69.36,27.06-18.23,9.38-11.44,12.17-12.49,22.81A26.74,26.74,0,0,1,1749.68,2586.15Z"/><path class="cls-35" d="M1863.55,2526.7a6.35,6.35,0,0,1-1.56,8.06c-2.49,1.85-5.42.95-6.89-1.71a6.3,6.3,0,0,1,1.56-8.05C1859.15,2523.14,1862.11,2524,1863.55,2526.7Z"/><path class="cls-35" d="M1877.14,2516.68a6.33,6.33,0,0,1-1.7,8.05c-2.51,1.84-5.44,1-6.91-1.73a6.29,6.29,0,0,1,1.68-8.06A4.51,4.51,0,0,1,1877.14,2516.68Z"/><path class="cls-35" d="M1890.89,2506.76a6.36,6.36,0,0,1-1.8,8c-2.53,1.81-5.49.92-6.92-1.8a6.3,6.3,0,0,1,1.77-8A4.54,4.54,0,0,1,1890.89,2506.76Z"/><path class="cls-35" d="M1904.75,2497.05a6.32,6.32,0,0,1-1.92,8c-2.56,1.77-5.47.83-6.86-1.9a6.27,6.27,0,0,1,1.87-8A4.54,4.54,0,0,1,1904.75,2497.05Z"/><path class="cls-35" d="M1918.63,2487.62a6.25,6.25,0,0,1-2,7.91,4.51,4.51,0,0,1-6.83-2,6.27,6.27,0,0,1,1.93-7.92A4.54,4.54,0,0,1,1918.63,2487.62Z"/><path class="cls-36" d="M1854.88,2516.45l-4.25,2.92c2,3.64,4.2,7.65,6.19,11.16a2.18,2.18,0,0,0,2.38,1.3,1.2,1.2,0,0,0,1-.42,3.06,3.06,0,0,0,.7-3.93C1859.05,2524,1856.79,2520.06,1854.88,2516.45Z"/><path class="cls-36" d="M1868.64,2506.54c-1.41,1-2.81,2.05-4.21,3.09,1.92,3.53,4,7.44,5.86,10.85a2.19,2.19,0,0,0,2.38,1.32,1.28,1.28,0,0,0,1-.43c1.07-1.11,1.62-2.26.78-3.93C1872.68,2514,1870.5,2510.1,1868.64,2506.54Z"/><path class="cls-36" d="M1882.31,2496.22l-4.18,3.18c1.91,3.62,4,7.61,5.84,11.1a2.2,2.2,0,0,0,2.38,1.34,1.29,1.29,0,0,0,1-.41c1.09-1.12,1.65-2.25.81-3.93C1886.36,2503.89,1884.19,2499.91,1882.31,2496.22Z"/><path class="cls-36" d="M1895.86,2485.67c-1.39,1.07-2.76,2.15-4.14,3.24,2,3.84,4.13,8.05,6.07,11.78a2.19,2.19,0,0,0,2.35,1.37,1.27,1.27,0,0,0,1-.41c1.09-1.09,1.68-2.2.87-3.9C1900.18,2493.86,1897.85,2489.62,1895.86,2485.67Z"/><path class="cls-36" d="M1909.19,2475c-1.36,1.09-2.7,2.18-4,3.28,2.17,4.2,4.48,8.74,6.54,12.85a2.19,2.19,0,0,0,2.33,1.39,1.22,1.22,0,0,0,1-.38c1.08-1.08,1.7-2.16.9-3.86C1913.89,2484,1911.36,2479.36,1909.19,2475Z"/><path class="cls-36" d="M1948.65,2601.55c-20.62,3.57-56,10.62-75.16,13.59-43.5,6.76-77.8,10.32-119.94,8.13-16.79-.87-15.09-32.72-4.81-40,46.51-.47,71,.86,121.12-8.34,54.08-9.93,129.88-24.27,188.21-33.83,15.15,11.05,11.7,23.89,7.48,39C2025.75,2587.12,1989.48,2594.46,1948.65,2601.55Z"/><path class="cls-17" d="M1867.82,1044.69c.8,20.23-3.32,37.29-12.29,55.92-1.37,2.81-2.88,5.65-5.23,7.73s-1.82,5.69-4.64,4.33c-.53-.27-1.07-.52-1.6-.77,8.44-20,15.74-36.82,19.24-43.81C1865.73,1063.22,1867.13,1054.85,1867.82,1044.69Z"/><path class="cls-17" d="M1895.75,949.24c-3,.9-6,1.75-9,2.59.24-.35.45-.71.65-1.07q4.14-1.35,8.31-2.66C1895.72,948.48,1895.74,948.86,1895.75,949.24Z"/><path class="cls-39" d="M2052.77,975.66c-5.09,4.63-10.24,9.32-14,15-8.26,12.39-9.55,28.45-18,40.69-9.61,13.91-21.61,9.9-35.93,10.46-17.24.68-34.15-1.16-50.52-6.88-8.62-3-17.24-7.19-22.9-14.36-5.82-7.39-7.83-17.25-6.95-26.64,4.53-.61,9.28-.92,13.07-3.27,7.51-4.65,8.32-15.11,8-23.94-.19-5.58-.75-11.66-2.88-16.72a62.38,62.38,0,0,0,3.67-11.39c.27-1.3.54-2.61.79-3.91a45.62,45.62,0,0,0,6.63-4.18c8.59-7.21,8.5-20.23,7.68-31.42-.89-12.2,4.35-18.33,3.34-30.52a54.07,54.07,0,0,0-1.79-10.83,74.2,74.2,0,0,1,9.11-4.91c25.85-11.7,51.06-18,74-33.36a118.76,118.76,0,0,0,10.67-7.94l1.53-1.29a5.19,5.19,0,0,0-1.38,2.71,29.81,29.81,0,0,0-.31,8.83c.54,7,2.18,14.89,2.42,18,1.13,13.88,3.19,27.49,7.32,40.67.86,2.8,1.84,5.58,2.91,8.34q1,2.7,2.23,5.38a113.84,113.84,0,0,0,14,23.56c4.36,5.62,17.78,13.79,19.85,19.76C2089.78,950.49,2060.56,968.58,2052.77,975.66Z"/><path class="cls-17" d="M1905.64,642.45a40.46,40.46,0,0,0-8.22,2.73c-1.33.52-2.57,1.28-3.84,1.93-.63.35-1.22.75-1.83,1.13a21.37,21.37,0,0,0-1.79,1.19,58.49,58.49,0,0,0-12.29,11.84,79,79,0,0,0-9.06,14.48c-.64,1.26-1.21,2.58-1.8,3.9l-1.76,3.94c-1.18,2.62-2.18,5.32-3.28,8a214.26,214.26,0,0,0-9.84,33,190,190,0,0,0-4.21,34.07,164.86,164.86,0,0,0,2.25,34.16,215,215,0,0,0,8.8,33.23,108.83,108.83,0,0,0,6.9,15.65A47.06,47.06,0,0,0,1875.94,855a23.78,23.78,0,0,0,7.09,4.31,22.37,22.37,0,0,0,8.22,1.37,25.05,25.05,0,0,0,15.73-6,24.87,24.87,0,0,1-15.66,7.36,22.92,22.92,0,0,1-8.92-.92,26.08,26.08,0,0,1-8-4.22,49.41,49.41,0,0,1-11.57-13.57,104.19,104.19,0,0,1-7.72-15.91c-2.17-5.47-4-11-5.63-16.66l-1.21-4.21-1.07-4.28-1.07-4.29-.83-4.34a165.77,165.77,0,0,1-2.59-35.16,189.07,189.07,0,0,1,4.6-34.92,198.48,198.48,0,0,1,10.85-33.42c1.21-2.67,2.32-5.38,3.6-8l1.93-3.94c.63-1.32,1.29-2.62,2-3.92a80,80,0,0,1,10.07-14.53,58.5,58.5,0,0,1,13.42-11.44A41.69,41.69,0,0,1,1905.64,642.45Z"/><path class="cls-17" d="M2075.83,743.63a187,187,0,0,1-5,40.06c-4.32,18.06-11.73,35.72-23.28,49.14A70.31,70.31,0,0,1,2031,847.1a71.68,71.68,0,0,1-15.11,6.93,93.77,93.77,0,0,1-36.51,3.83,55.59,55.59,0,0,1-5.57-.76c-9.35-1.69-18.64-5.18-27.82-5.62a30.37,30.37,0,0,0-5.65.27c-8.86,1.18-17.16,5.61-26.07,6.81a34.49,34.49,0,0,1-9.63-.1c-11.13-1.66-21.57-8.43-29.59-16.64-17.69-18.15-26.73-43.56-28.25-68.85a148.23,148.23,0,0,1,.43-22.9c2-21.86,8.43-43.25,16.09-63.8,6.37-17.1,14.58-34.06,27.89-45.09,14.92-12.37,34.68-12,52.32-7.53,5.13-14.95,31.46-23,44.82-19.07,5.5,1.61,10.44,5.07,15.22,8.6a402.42,402.42,0,0,1,34.32,28.52c6.36,5.91,12.62,12.12,17.38,19.65s7.7,15.77,10.72,24.09C2071.45,710.51,2076.08,727.4,2075.83,743.63Z"/><path class="cls-20" d="M2060.73,756.23c1.33,13-2.49,31.74-4.76,44.64a200.59,200.59,0,0,1-8.41,32A68.67,68.67,0,0,1,2015.88,854l-20.12-54.18c2.16-41.63-7.21-77.37-8.14-118.65a18.42,18.42,0,0,1,2.53,4.57q4.68,11.16,8.34,22.73c3,9.29,4,25.52,13.7,30.31,3.74,1.85,8.12,1.74,12.2,2.63a26.8,26.8,0,0,1,7.93,3.13l0,0c.65.44,1.31.86,2,1.28h0a37.18,37.18,0,0,1,10.27,11.1c4.55,7.46,6.83,16.08,8.46,24.66a176.27,176.27,0,0,0,1.72-24.4c0-.92,0-1.83,0-2.76C2056.72,755.08,2058.7,755.65,2060.73,756.23Z"/><path class="cls-40" d="M2046.3,880.47a110.23,110.23,0,0,1-33.91,27.95c-21.67,11.27-48.35,13.82-70.94,5.18a84.2,84.2,0,0,0-.06-14.47c-.89-12.2,4.35-18.33,3.34-30.52a54.07,54.07,0,0,0-1.79-10.83,74.2,74.2,0,0,1,9.11-4.91c25.85-11.7,51.06-18,74-33.36a118.76,118.76,0,0,0,10.67-7.94c0,.48.09.94.15,1.42a29.81,29.81,0,0,0-.31,8.83c.54,7,2.18,14.89,2.42,18C2040.11,853.68,2042.17,867.29,2046.3,880.47Z"/><path class="cls-20" d="M1940.33,851.75a23.39,23.39,0,0,1,2.65,6,52.69,52.69,0,0,1,1.79,10.83c1,12.19-4.22,18.32-3.33,30.52a84.2,84.2,0,0,1,.06,14.47c0,.06,0,.13,0,.19-.3-3.26-2-6.2-6.18-9-12.66-8.44-21.42-20.25-32.12-30.73-1.76-1.71-3.58-3.42-5.42-5.12a15.1,15.1,0,0,1,6.87-10.51c-11.13-1.66-21.57-8.43-29.59-16.64-17.69-18.15-26.73-43.56-28.25-68.85a148.23,148.23,0,0,1,.43-22.9c.17-.38.35-.77.53-1.15,1.16-2.46,6.64-8.83,9.26-14.44,1.51-3.18,2.09-6.12.43-8,6.66,7.39,7.27,18,6.78,28.18-.08,1.58-.19,3.14-.3,4.68a5,5,0,0,1-.86,3c-.67.79-2.14,1-2.68.07-4,2.37-5.79,10.88-1.75,13.16a10.9,10.9,0,0,0,8.45.65,17.25,17.25,0,0,1-1.78,6.42,36,36,0,0,0,3.28-6.93,18,18,0,0,0,3.21-1.64c3.92-2.49,7-6.07,10.72-8.87,14.26-10.72,35.47-7.72,49.82,2.87s23.08,27.08,29.73,43.62c5.85,14.56,10.5,29.84,11.74,45.41-9.35-1.69-18.64-5.18-27.82-5.62A30.37,30.37,0,0,0,1940.33,851.75Z"/><path class="cls-20" d="M1868.58,775.71a36,36,0,0,1-3.28,6.93,17.25,17.25,0,0,0,1.78-6.42A14.74,14.74,0,0,0,1868.58,775.71Z"/><path class="cls-17" d="M1941.48,913.79a31.3,31.3,0,0,1-2.64,10.06,19.55,19.55,0,0,1-5.08,6.7,45.62,45.62,0,0,1-6.63,4.18c-3.89,2.15-8.16,4.39-10.58,6.63l-.43.43a17.58,17.58,0,0,1,6.55,8.24,42.63,42.63,0,0,1,2.73,13.75c.06,1,.12,2,.15,3,.3,8.83-.51,19.29-8,23.94a11.09,11.09,0,0,1-1.22.67c-3.55,1.75-7.79,2-11.85,2.6a37,37,0,0,0-4.69.88,13.36,13.36,0,0,0-6.38,3.5c-7.35,7.61-.82,22.72-7.45,30.1a10.11,10.11,0,0,1-1.52,1.38c-5.09,3.74-14,2.77-16.21,8.58a2,2,0,0,0-.09.22,11.87,11.87,0,0,0-.31,4.37c0,.56,0,1.1.07,1.66v0c-.69,10.16-2.09,18.53-4.52,23.4-3.5,7-10.8,23.82-19.24,43.81a97.26,97.26,0,0,0-13.19-5,98.58,98.58,0,0,0-12.57-2.88c8.19-8.93,18.42-20.74,21.94-33.21a31.42,31.42,0,0,0,1.23-9.82c-7.31,10.78-28.09,43.18-42.88,38.51-6.26-2-11.82-5.49-17-9.54-3.17-2.47-6.22-5.14-9.22-7.78,20.63-.65,32.64-9,43.33-25.17,4.16-8.31,9.51-13.37,16-18,3.29-2.36,6.88-4.61,10.76-7.1a10.9,10.9,0,0,0,3.72-3.31c1.47-2.51,1.11-9.39.3-15a46.19,46.19,0,0,0-1.37-6.64c6.17-2.65,15.38-5.67,16.36-13.68.74-6-4-11.58-3.53-17.6a10.75,10.75,0,0,1,1.62-4.93,17.09,17.09,0,0,1,5.73-5.23c7-4.25,16.94-6.8,21.48-13.69l0,0v0l.64-1v0a16.36,16.36,0,0,0,1.77-8.84c-.32-5.59-2.82-11.43-5.72-16.38-2-3.37-4.21-7-4.16-10.82a9.61,9.61,0,0,1,.07-1.07c.82-6.45,7.79-9.86,13.63-12.69a27.86,27.86,0,0,0,7.33-5c2.66-2.62,4.33-5.8,3.5-9.35-.69-3-3.06-5.26-4.57-7.94a14.3,14.3,0,0,1-1.71-8.43c0-.41.09-.84.16-1.25,1.84,1.7,3.66,3.41,5.42,5.12,10.7,10.48,19.46,22.29,32.12,30.73C1939.45,907.59,1941.18,910.53,1941.48,913.79Z"/><path class="cls-39" d="M2039.57,734.09l8.4,53.23a191.09,191.09,0,0,1,0,27.2c-3.47,46.7-25.16,70.71-43.84,82.85a56.53,56.53,0,0,1-57,2.49c-27.48-14.41-43.34-41-52.63-62.37-7-16.18-10.32-29.39-12-32.15l-.11-.16c-.8,4.26-3.61,3.69-7.82,2.6-5.13-1.34-8.7-5.85-11.85-10.12-3.73-5-7.44-10.18-10.06-15.89a34.15,34.15,0,0,1-3.4-15.58c-.34,1-.69,1.83-.82,1.76,1.06-9.6,5.73-12.23,10.23-12.4a20.16,20.16,0,0,1,9.23,2.31l4.15-18.2,30-43.33,40.27-45,31.54,8.83A91.56,91.56,0,0,1,2039.57,734.09Z"/><path class="cls-40" d="M2039.57,734.09l8.4,53.23a191.09,191.09,0,0,1,0,27.2,246.58,246.58,0,0,0-4.52-29.48c-1.83-8.48-4.08-20-9.49-27.18-4.91-6.44-14.46-7-21.58-9.65-4.84-1.77-4-2.79-6.68-7.18-5.39-1.09-8.9-6.42-10.49-11.69s-1.9-10.92-4-16c-3.46,20.08-16.28,32.09-36,37.49,1-.54,1.55-3.33,2.49-4.16a26.21,26.21,0,0,1-13.46,4.9c1.5-1.79,5.13-.12,4.55-2.39-.34-1.31,0-2.59-.37-3.91-5.18,2.79-9.72,6.6-14.7,9.72-6.09,3.82-10.89,4.39-17.67,4.83-3,.21-16-.6-17.93.81-6.36,4.79-12.28,7.35-20.15,6.12-.57,3.91-3.12,3.56-4.52,7.26-1.74,4.55-7.26,13.43-11.81,7.6-2.5-3.21-.71-9.62-1.4-13.19a90.2,90.2,0,0,1-1.59-12.88,20.16,20.16,0,0,1,9.23,2.31l4.15-18.2,30-43.33,40.27-45,31.54,8.83A91.56,91.56,0,0,1,2039.57,734.09Z"/><path class="cls-17" d="M2054.8,757.23a177.72,177.72,0,0,1-1.72,24.4c-1.63-8.59-3.91-17.21-8.47-24.66a37.43,37.43,0,0,0-10.26-11.11h0c-.65-.44-1.31-.87-2-1.26l0,0a27,27,0,0,0-7.93-3.13c-4.07-.89-8.44-.79-12.19-2.63-9.74-4.79-10.75-21-13.7-30.31q-3.65-11.55-8.34-22.73a18.67,18.67,0,0,0-2.53-4.58,8.57,8.57,0,0,0-2.95-2.38c3.57,2.71,1.93,12.83,2.15,17a67.29,67.29,0,0,1-3.4,25.07c-2.2,6.48-6.17,13.11-11.85,17.29-5.85,4.34-13.81,5.89-20.65,8.13,5-1.62,7.55-7.36,7.64-12.6s-1.64-10.32-2.42-15.51c.49,6.13,0,12.55-3.06,17.91-5.52,9.81-20.74,14.18-31.3,15-14.65,1.18-18.44,2.2-19.29,2.77a66.7,66.7,0,0,0-.77-22.41s1,17.1-4.92,20.66-22.35,6.65-22.35,6.65c.78-6.72-2.85-10.95-5-17.35,2,11.36,2.91,23.63-.82,34.29a36,36,0,0,1-3.28,6.93,17.25,17.25,0,0,0,1.78-6.42,51.53,51.53,0,0,0-2.86-21.52c.49-10.16-.12-20.79-6.78-28.18,1.66,1.84,1.08,4.78-.43,8a56.21,56.21,0,0,1-1-6.22c-2.8-29.09,15.44-58,39.76-73.34,14.73-9.27,31.76-14.36,48.85-17.64,5.49-1,11.07-1.91,16.6-1.33a48.74,48.74,0,0,1,15,4.57c35.17,16.15,66.4,61,76.55,98.4a64.53,64.53,0,0,1,1.91,15.55C2054.79,755.4,2054.79,756.31,2054.8,757.23Z"/><path class="cls-20" d="M2032.32,744.56a26.8,26.8,0,0,0-7.93-3.13c-4.08-.89-8.46-.78-12.2-2.63-9.74-4.79-10.75-21-13.7-30.31q-3.65-11.55-8.34-22.73a18.42,18.42,0,0,0-2.53-4.57h0c0-1.44,0-2.88-.06-4.34q0-5.54-.2-11.09c5.57,11,11,22,16.45,33,5,10.08,7.67,21.16,13.88,30.74A51.39,51.39,0,0,0,2032.32,744.56Z"/><path class="cls-20" d="M2054.77,754.47c0,.93,0,1.84,0,2.76a176.27,176.27,0,0,1-1.72,24.4c-1.63-8.58-3.91-17.2-8.46-24.66a37.18,37.18,0,0,0-10.27-11.1C2040.49,749.62,2047.32,752.19,2054.77,754.47Z"/><path class="cls-17" d="M1902.49,753.87c0,.32-.07.49-.07.49S1902,754.18,1902.49,753.87Z"/><path class="cls-43" d="M1964.86,797.21c-.63,3.94-1.18,7.9-1.78,11.85l-.83,5.93-.79,5.93c-.08.48-.11,1-.15,1.59a11.2,11.2,0,0,0,0,1.64,11.38,11.38,0,0,0,.16,1.65,11.26,11.26,0,0,0,.35,1.63,12.62,12.62,0,0,0,3.41,5.68,12.88,12.88,0,0,0,5.71,3.19c.53.1,1.06.22,1.59.3s1.07.07,1.6.08a6.53,6.53,0,0,0,3.07-.68c0-.31,0-.09,0-.16h-.08l-.09,0-.19,0-.37-.06-.73-.11-1.41-.34-1.34-.46-1.27-.56a14.37,14.37,0,0,1-4.23-3.3,15.42,15.42,0,0,1-2.71-4.48,7.76,7.76,0,0,1-.42-1.26,7.33,7.33,0,0,1-.27-1.3,7.59,7.59,0,0,1-.12-1.34,13.61,13.61,0,0,1,0-1.41l.37-6,.32-6c.18-4,.4-8,.54-12Z"/><path class="cls-20" d="M1887.39,774.12c3.82-7,12.34-10,19.57-12a54.51,54.51,0,0,1,23.34-1.08c3,.52,9.55.78,8.79,5.52-.69,4.2-6.35,3.87-9.44,3.61-5.13-.42-10.43-.87-15.61-.94C1904.33,769.13,1896.4,771.69,1887.39,774.12Z"/><path class="cls-20" d="M2033.94,761.41c-4.84-6.45-13.78-8.14-21.29-9.11a55,55,0,0,0-23.47,2.32c-2.9,1-9.43,2.16-8,6.79,1.29,4.09,6.89,2.94,9.94,2.23,5.07-1.17,10.3-2.38,15.46-3.2C2016.3,758.89,2024.58,760.3,2033.94,761.41Z"/><ellipse class="cls-20" cx="2003.12" cy="787.16" rx="7.7" ry="7.43" transform="translate(1135.39 2756.71) rotate(-87.68)"/><path class="cls-20" d="M1916.65,794.81a7,7,0,1,0,6.34-7.92A7.17,7.17,0,0,0,1916.65,794.81Z"/><path class="cls-20" d="M1954.94,867.08c2.35,6,8.54,10.46,15.21,11.37a17.83,17.83,0,0,0,2.53.18h.19c9.8.37,24.38-6.34,29.79-14.65a23.82,23.82,0,0,0,3.69-14.85c0-.5-.11-1-.19-1.5C2006.16,847.64,1966.09,865.24,1954.94,867.08Z"/><path class="cls-20" d="M2018.48,777.61a35,35,0,0,0-3.56-1.4c-1.2-.42-2.43-.79-3.67-1.12a39.94,39.94,0,0,0-7.67-1.2c-1.3-.06-2.62-.13-4-.07a13.48,13.48,0,0,0-3.95.76,14.54,14.54,0,0,0-3.6,1.88,10.44,10.44,0,0,0-2.75,2.95l.2.24c1.26-.46,2.4-.89,3.55-1.23s2.3-.61,3.45-.85l3.47-.69a22.49,22.49,0,0,1,3.59-.5c1.22-.07,2.45-.07,3.68,0s2.47.13,3.71.26a55.06,55.06,0,0,1,7.4,1.28Z"/><path class="cls-20" d="M1906.79,789.32a56.24,56.24,0,0,1,7.09-2.49c1.2-.34,2.4-.63,3.62-.87a34.72,34.72,0,0,1,3.63-.59,24.42,24.42,0,0,1,3.62-.11l3.54.11c1.17,0,2.35.12,3.54.27s2.39.38,3.7.62l.16-.26a10.58,10.58,0,0,0-3.2-2.46,15,15,0,0,0-3.86-1.26,13.91,13.91,0,0,0-4-.09c-1.33.16-2.62.45-3.9.73a39.49,39.49,0,0,0-7.36,2.45c-1.17.53-2.32,1.1-3.44,1.71a35.15,35.15,0,0,0-3.28,2Z"/><path class="cls-45" d="M2005.73,856.87a23.46,23.46,0,0,1-3.07,7.12c-5.41,8.31-20,15-29.79,14.65h-.19a17.83,17.83,0,0,1-2.53-.18,23.52,23.52,0,0,1,4.93-6.09A64,64,0,0,1,2005.73,856.87Z"/><g class="cls-55"><ellipse class="cls-40" cx="1920.1" cy="824.79" rx="22.98" ry="8.76" transform="translate(-67.83 180.44) rotate(-5.29)"/></g><g class="cls-55"><ellipse class="cls-40" cx="2018.61" cy="814.22" rx="22.98" ry="8.76" transform="translate(-66.44 189.47) rotate(-5.29)"/></g><path class="cls-16" d="M1857.3,1024.28a29.19,29.19,0,0,0-25.63,4.18c5.34-3.9,29.71,17,37.49,14C1880.46,1038.14,1862.8,1026,1857.3,1024.28Z"/><path class="cls-3" d="M2325.81,1419.15c-.64,7.85-2.44,15.73-3.95,22.89-33.29-11.76-66.3,4.82-94,24.26-1.76,1.23-2.73,2-2.73,2l-201.75-42.87-74.92-15.92c.46-.07-14.85-17.79-17.64-19.11-17.92-8.41-37.63-4.07-56-1.12-14.77,2.37-28.44-3.54-43-4.57,2.84.17,36.81,2.11,46.86-6.08,10.5-8.56-10.35-21.93-35.26-23.48-16.63-1-32.23-21-45.85-29.86-.56-2.48-1.1-5-1.64-7.41-.65-3-1.3-6-1.94-9q-3-13.78-5.85-27.61c-.55-2.62-1.08-5.24-1.62-7.86-10.17-49.37-19.36-99.07-25.23-149.14-5.68-48.52-14.61-108.07,35.79-136.47,19.9-11.2,41.29-19.76,62.73-27.52q2.37-.87,4.76-1.71c.63-.22,1.25-.45,1.88-.66,3.37-1.15,6.75-2.19,10.12-3.18s6.78-1.93,10.15-2.87l0,0c-2.46,3.73-6.52,6.19-10.83,8.33-3.64,1.82-7.48,3.41-10.65,5.36-4,2.45-7,5.45-7.35,10.16-.47,6,4.27,11.62,3.53,17.6-1,8-10.19,11-16.36,13.68,1.39,4.34,3.26,17.85,1.07,21.6a10.9,10.9,0,0,1-3.72,3.31c-11.47,7.4-20.47,12.53-26.75,25.08-10.69,16.16-22.7,24.52-43.33,25.17,7.93,7,16.17,14.14,26.25,17.32,14.79,4.67,35.57-27.73,42.88-38.51.7,16-12.85,31.77-23.17,43a97.42,97.42,0,0,1,25.76,7.9c8.44-20,15.74-36.82,19.24-43.81,2.43-4.87,3.83-13.24,4.52-23.4v0c0-.56,0-1.1-.07-1.66a11.66,11.66,0,0,1,.31-4.37,2,2,0,0,1,.09-.22c1.17-3.16,4.36-4.31,7.84-5.3,2.91-.84,6-1.57,8.37-3.28,9.09-6.68,1.13-23.35,9-31.48a13.36,13.36,0,0,1,6.38-3.5,37,37,0,0,1,4.69-.88c4.54-.61,9.29-.92,13.07-3.27,7.52-4.65,8.33-15.11,8-23.94-.18-5.58-.74-11.66-2.87-16.72a17.58,17.58,0,0,0-6.55-8.24c.13-.14.28-.29.43-.43,2.4-1.17,4.78-2.47,7.12-3.89q1.92,9.12,3.83,18.25c2.21,10.6,4.07,19.33,9.14,26.83a39.59,39.59,0,0,0,10.22,10.27c35,24.85,83.6.48,108.33-27.75a62.69,62.69,0,0,0,11.61-19.17,47.1,47.1,0,0,0,3.12-15.75,39.35,39.35,0,0,0-.9-9.15c.18.84,1.87,1.4,4.46,1.75a77,77,0,0,0,8.2.54h0c9.69.21,22-.49,26-.64l1.09,0h.45c2.13,0,4.25-.08,6.39-.09,29.34-.25,60.18,2.15,87,14.58,32.53,15.1,39.65,50.84,49.63,81.77,6.9,21.35,7.88,46.32,11.48,68.48q6.12,37.65,12.22,75.3,9.66,59.38,19.29,118.77c2.07,12.75,0,26.51,2,38.79,2.43,14.73,13.82,26.21,15.53,41.49s.46,17.61,8.64,32C2325.75,1401.43,2326.53,1410.27,2325.81,1419.15Z"/><path class="cls-41" d="M2312.28,1418.68c-21.66.49-40.09,5-61.39-.31-18.33-4.55-25.58-18.2-27-36.89-1.85-24.68-2.88-49.17-14.28-71.75-17.49-34.63-12.87-65.54-15.93-102.88-1.71-20.88-6.58-38.81-6.36-60.25q.4-39.75-2.08-79.47c-2.21,24.09-8.73,47.56-15.23,70.87q-3.9,14-7.8,28c-8.87-4.47-15.33-13-19-22.3-3.77-9.64-2.51-19.88-5.46-29.39-2.3-7.46-8.47-14.82-11.56-22.23-6.76-16.27-10.73-33.59-10.34-51.27.85-39.1,15.3-80.48-.27-118.3-2.14,0-4.26.05-6.39.09h-.45l-1.09,0c-4,.15-16.34.85-26,.64h0a77,77,0,0,1-8.2-.54,28.25,28.25,0,0,0-3.56,7.4,80.91,80.91,0,0,0-3.12,15.75c-1.1,9.39-1.45,19-2.86,25.6-3.49,16.29-8,34.26-19.27,47.09-18.7,21.3-60.73,18.57-86.18,22.37-16,2.39-34.26-12.4-32.22-28.58,1.48-11.72,7.51-20,10.37-29.83-5.07-7.5-6.93-16.23-9.14-26.83q-1.92-9.13-3.83-18.25c-2.34,1.42-4.72,2.72-7.12,3.89-.15.14-.3.29-.43.43a17.58,17.58,0,0,1,6.55,8.24c2.13,5.06,2.69,11.14,2.87,16.72.31,8.83-.5,19.29-8,23.94-3.78,2.35-8.53,2.66-13.07,3.27a37,37,0,0,0-4.69.88,13.36,13.36,0,0,0-6.38,3.5c-7.84,8.13.12,24.8-9,31.48-2.33,1.71-5.46,2.44-8.37,3.28,1.22,21.54,3.31,43.05,5.86,64.48,7.56,63.54,19.58,127.56,48.17,184.81,16.38,32.84,37.89,62.79,58.41,93.21,11.33,16.78,22.47,33.86,34.93,49.79l201.75,42.87s1-.73,2.73-2c27.72-19.44,60.73-36,94-24.26,1.51-7.16,3.31-15,3.95-22.89A78.24,78.24,0,0,0,2312.28,1418.68Zm-152-249.53c-.47,0,.46-.9,1.51-1.59C2161.54,1168.34,2161.07,1169.17,2160.28,1169.15Z"/><path class="cls-56" d="M1831.71,1384.66h0l-21.26-4.52q-6.77-27.36-12.81-54.89c13.62,8.81,29.22,28.82,45.85,29.86,24.92,1.55,45.76,14.92,35.26,23.48C1868.43,1387,1833.14,1384.75,1831.71,1384.66Z"/><path class="cls-56" d="M1948.44,1409.47l-116.73-24.81c14.57,1,28.28,7,43.1,4.58,18.36-3,38.07-7.29,56,1.12C1933.59,1391.68,1948.9,1409.4,1948.44,1409.47Z"/><path class="cls-16" d="M1887.46,950.74v0l-.64,1-.06,0,0,0c-4.54,6.89-14.53,9.44-21.48,13.69-.22-2.53-.45-4.89-.65-7l22.8-7.78Z"/><path class="cls-16" d="M2011,1647.15c-.07-.31-.15-.63-.22-1q-.76,2.79-1.45,5.62c-12.22,49.58-10.31,103.71-10.08,155,.24,53.53,9.1,107.17,9.27,160.73a375.87,375.87,0,0,1-3.18,52.29c-7.27,52.89,30.06,374.27,33.85,396s27.31,60.14,13.83,78.32-161.72,0-161.73,0c-13.19-1.61-42.54-229.58-46.66-253.68-14.23-83.27-12.84-165.56-23.19-249.79q-18.48-150.3-28.09-301.5c-3.8-59.79-17.44-121.55-8-180.52,10.32-64.79,10.54-134.38,8.73-199.82q-.16-5.46-.34-10.9c-.75-21.55-2-59,6.37-79.54.12-.28,25-61.42,44-106.51,8.44-20,15.74-36.82,19.24-43.81,2.43-4.87,3.83-13.24,4.52-23.4v0c.14-2,.24-4.11.33-6.25,2.17-5.81,11.12-4.84,16.21-8.58,9.09-6.68,1.13-23.35,9-31.48a13.36,13.36,0,0,1,6.38-3.5,221.83,221.83,0,0,0,5.17,25.62c4.37,16.07,10.49,27.89,18.78,31,20.47,7.77,124.69-14.52,131.13-33.07,5.51-15.85,17-77.39,20.18-95l6.66-.18h0q13-.37,26-.64l1.09,0h.45c-1.74,16.54-3.95,38.85-6.47,66.69a373.49,373.49,0,0,0-1.24,50c1.77,41,10.74,81.71,29.28,118.43,10.33,20.5,17.38,41.58,42.24,47,2.13,25.89-.33,52.84,2.6,78.24,4,34.49,25.27,67.2,32,101.66,3.15,16.14,1.36,32.83-1.38,49.06-.59,3.48-1.22,7.08-.38,10.52.11.44.25.88.38,1.3.09.26.18.52.29.76a5.49,5.49,0,0,0,.21.51,4.41,4.41,0,0,0,.28.58,6.36,6.36,0,0,0,.3.58c.1.19.21.37.32.56.22.36.45.71.7,1.06a6.12,6.12,0,0,0,.39.5,4.78,4.78,0,0,0,.39.5,6.2,6.2,0,0,0,.43.48,18.12,18.12,0,0,0,1.82,1.79c.32.28.64.54,1,.82l.34.26c.23.18.47.35.71.52a7.57,7.57,0,0,0,.74.52l.13.09.55.37c1.75,1.15,3.62,2.2,5.5,3.24,3,13.93,16,72.61,26.56,115q1,6.28,2,12.57c.66,4.17,1.31,8.33,2,12.51.49,3.21,1,6.42,1.47,9.64.34,2.1.65,4.22,1,6.34.46,3,.91,6,1.36,9,.63,4.17,1.24,8.35,1.86,12.53q.58,3.95,1.14,7.89.89,6,1.73,12,1.28,8.86,2.52,17.75c.36,2.49.7,5,1,7.47-13.27-1.71-10.64,12.92-10.64,12.92-13-4.47-15.54,10.12-15.54,10.12s14.19,16.54,32.24,21.55q3.54,26.57,6.87,53.17c7.39,58.69,14.17,117.45,20.71,176.24,7.73,69.48,7.54,145.76,24.93,213.75,11.4,44.55,14.55,92.24,20.1,137.76,2.84,23.28-1.12,45.35,8.26,65.95,8.83,19.37,14.87,39.61,23.18,59,8.68,20.24,13.8,36.3-7.4,41-1.55.35-3.13.67-4.73,1-23.18,4.49-51.44,5.58-75.91,11.13-8.28,1.88-23.15,6.45-38.78,9.88-22.83,5-47.29,7.56-55.24-4.32-9.74-14.52-5.51-56.25-8.29-74.26-3.21-20.74-7.91-43.34-12.86-62.43-11.38-44-21.77-88.22-31.75-132.55-20-88.81-30.08-182.88-55.56-268.88-10.82-36.5-20.13-73.66-28.77-111.05"/><path class="cls-18" d="M2011,1647.15a495.77,495.77,0,0,0,24.26-103.23c-2.7,21.8,14.49,54,18.26,75.88,5.48,32,4.41,63.43,10.68,94.76,14,69.9,29.9,139.36,45.86,208.82h-21.94q18.78,87.34,37.55,174.69c11.1,51.76,8.52,66.65,63.61,70.52,60.59,4.25,120.71,7.54,180.93,16.27-41.43,48-106.08,74.87-169.31,70.47-6.18-.43-13.56-.62-17.16,4.42-1.79,2.51-2.13,5.73-2.4,8.79-2.38,26.14,40.19,231.63,64.92,226.31-22.83,5-47.29,7.56-55.24-4.32-9.74-14.52-5.51-56.25-8.29-74.26-3.21-20.74-7.91-43.34-12.86-62.43-11.38-44-21.77-88.22-31.75-132.55-20-88.81-30.08-182.88-55.56-268.88-10.82-36.5-20.13-73.66-28.77-111.05"/><path class="cls-18" d="M1972.87,1407.86c-1,2.29-3.37,3.57-5.6,4.7-56.07,28.11-117,48.77-179.79,54.24,3.27-14.31,5.81-28.89,6.16-44.15.88-37.89,1.39-76.13.38-113.8q-.16-5.46-.34-10.9c-.75-21.55-2-59,6.37-79.54.12-.28,25-61.42,44-106.51,8.44-20,15.74-36.82,19.24-43.81,2.43-4.87,3.83-13.24,4.52-23.4v0c.14-2,.24-4.11.33-6.25,2.17-5.81,11.12-4.84,16.21-8.58,9.09-6.68,1.13-23.35,9-31.48a13.36,13.36,0,0,1,6.38-3.5,221.83,221.83,0,0,0,5.17,25.62,35,35,0,0,1-3.22,5c-8.1,10.23-18.46,17.59-23.82,30-4.2,9.77-3.6,21.19-6.45,31.31-3.22,11.46-8.4,23-13.67,33.6-5.5,11.14-16.81,21.58-15,33.83,1.74,11.62,11.27,25.79,19.58,33.7,8.9,8.46,19.06,13.77,23.16,25.95a134.43,134.43,0,0,0,13.65,29.74,253,253,0,0,1,29.89,73c3.37,14.38,5.5,29.08,10.3,43s12.71,27.43,25,35.55C1969,1398.26,1975.06,1402.74,1972.87,1407.86Z"/><path class="cls-49" d="M1904.2,1385.5l-6.69,14.34-95.38-3.53,8.28-16.17s-25.48-83.88-35.49-149.58a344.81,344.81,0,0,1-3.74-34.73c-.5-10.19-.2-19.1,1.16-26.08,0,0,28.75-30,46.37-22,0,0,4.6,7.4,11.68,19.83,1.67,2.94,3.48,6.15,5.39,9.62,22.09,39.87,58.74,112.73,67.4,171C1905.17,1361.61,1905.68,1374.22,1904.2,1385.5Z"/><path class="cls-28" d="M1904.2,1385.5l-6.69,14.34-95.38-3.53,8.28-16.17s-25.48-83.88-35.49-149.58l3.17-.76c.65,12.51,7.61,23.76,15.1,33.82a257.59,257.59,0,0,0,110,84.6C1905.17,1361.61,1905.68,1374.22,1904.2,1385.5Z"/><path class="cls-28" d="M1835.78,1177.18c-21.32,9.45-40.39,12.91-64.34,18.59,22.31-5.56,40.14-16.42,59-28.21C1832.06,1170.5,1833.87,1173.71,1835.78,1177.18Z"/><path class="cls-16" d="M1948.44,1409.47,1831.67,1427c-27.21,4.1-68.42-44.53-82.42-61.61s7.59-112.62,7.59-112.62l29.71,20.61c.54,2.62,1.07,5.24,1.62,7.86q2.86,13.82,5.85,27.61l1.94,9-9,3.3c3.39.15,6.94,1.71,10.63,4.11,13.62,8.81,29.22,28.82,45.85,29.86,24.92,1.55,45.76,14.92,35.26,23.48-10.28,8.37-45.57,6.16-47,6.07,14.57,1,28.28,7,43.1,4.58,18.36-3,38.07-7.29,56,1.12C1933.59,1391.68,1948.9,1409.4,1948.44,1409.47Z"/><path class="cls-3" d="M1756,1077.32q-7.57,117.67-5.61,235.71a48.7,48.7,0,0,1,43,8.23c9.89-23.16-1.65-49.38-2.6-74.55-.48-12.51,1.73-24.94,3-37.4,1.89-18.53,1.73-37.21.86-55.82q-1.71-36.21-7-72.14c-.81-5.46-1.84-11.26-5.58-15.32a14.48,14.48,0,0,0-15-3.78"/><path class="cls-57" d="M2136.43,1131.28c17.91-22.08,15.61-54.32,28.11-79.85,11.54,24.75,3.64,43.31.34,67.75-4.26,31.5-1.21,65.27,5.25,96.24.35,1.65-10.62-.09-10.08,1.51C2154.69,1183.92,2148.65,1162.41,2136.43,1131.28Z"/><path class="cls-57" d="M2059.39,1864.25c-15.54-49.07-27.22-101.85-37.59-151.9-6.33-30.58-5-64.64-7.34-95.79-2-27.31-9.8-60.35-6.41-87.43q-9.19,100-12,200.41c-1.15,41.19,26.15,84.08,45.82,120.28,3.16,5.81,7.09,12.08,13.48,13.77S2061.38,1870.56,2059.39,1864.25Z"/><path class="cls-56" d="M2331.92,1691.08c9.68-5.91,3.37-12.59-.68-19.6a66.92,66.92,0,0,1-7.56-19.73"/><path class="cls-20" d="M1831.71,1039c-4.62,16.69-29.71,45.88-50.1,50.93-3.17-2.47-6.22-5.14-9.22-7.78,20.63-.65,32.64-9,43.33-25.17C1819.88,1048.68,1825.23,1043.62,1831.71,1039Z"/><path class="cls-20" d="M1848.23,1050.46c3.76,15.38-.82,31.89-9.19,45.32a96.25,96.25,0,0,1-8.12,11.1,98.58,98.58,0,0,0-12.57-2.88c8.19-8.93,18.42-20.74,21.94-33.21A67.1,67.1,0,0,0,1848.23,1050.46Z"/><path class="cls-20" d="M1859.57,970.79c5.94,9.24,9.28,21.48,4.76,31.9-2.19,5-5.55,8.89-10.88,10.64a30,30,0,0,1-7,.31,46.19,46.19,0,0,0-1.37-6.64c6.17-2.65,15.38-5.67,16.36-13.68.74-6-4-11.58-3.53-17.6A10.75,10.75,0,0,1,1859.57,970.79Z"/><path class="cls-20" d="M1883.51,925.52c-2-3.37-4.21-7-4.16-10.82,3.52,5.3,11.72,8,14.09,15.09,1.19,3.57-.73,7.8-4.21,12.11C1888.91,936.31,1886.41,930.47,1883.51,925.52Z"/><path class="cls-20" d="M1899.31,878.65a14.3,14.3,0,0,1-1.71-8.43,7.26,7.26,0,0,1,4,8,15.57,15.57,0,0,1,5.35,9.47c.45,2.89-.27,6.38-2.89,7.68a8.35,8.35,0,0,1-3.69.6c2.66-2.62,4.33-5.8,3.5-9.35C1903.19,883.59,1900.82,881.33,1899.31,878.65Z"/><path class="cls-20" d="M1916.3,991.36c-3.55,1.75-7.79,2-11.85,2.6a37,37,0,0,0-4.69.88,13.36,13.36,0,0,0-6.38,3.5c-7.35,7.61-.82,22.72-7.45,30.1-.21-13.49-13.09-34.28,7.75-38.73C1900.55,988.25,1909.27,992.51,1916.3,991.36Z"/><path class="cls-20" d="M1938.84,923.85a19.55,19.55,0,0,1-5.08,6.7,45.62,45.62,0,0,1-6.63,4.18c-3.89,2.15-8.16,4.39-10.58,6.63l-.43.43a17.58,17.58,0,0,1,6.55,8.24,42.63,42.63,0,0,1,2.73,13.75c-.22-1.59-.46-3-.69-4.13-2.12-10.5-12.17-14.88-20-20.39C1915.44,937.37,1930.13,932.52,1938.84,923.85Z"/><path class="cls-16" d="M2373.63,1688.05c-.78,19.44-47.42,28.77-52.1,28.77,0,0-7,12.83-24.87,10.11,0,0,2.33,1.54-19.45.38a38.73,38.73,0,0,1-8.19-1.37c-18.05-5-32.24-21.55-32.24-21.55s2.51-14.59,15.54-10.12c0,0-2.63-14.63,10.64-12.92a30.4,30.4,0,0,1,7.25,2,47.46,47.46,0,0,0,2.33-35.77c-6.6-19.83-4.74-11.68-13.22-30.33-2.56-5.62-7.19-22.62-12.4-43.58-10.57-42.43-23.53-101.15-26.58-115.09-.44-2-.67-3-.67-3s76.2-41.61,105.75-20.22c0,0,5.83,63.11,10.1,113.78s3.9,70.5,3.9,70.5S2374.41,1668.62,2373.63,1688.05Z"/><path class="cls-18" d="M2252.33,1694.27c3.55,3.11,7,6.19,10.5,9.18s7,5.9,10.63,8.7,7.34,5.4,11.16,7.91,7.86,4.64,12,6.87a46.38,46.38,0,0,1-13.55-4.12,67.63,67.63,0,0,1-12.08-7.49,81,81,0,0,1-10.38-9.63A61.31,61.31,0,0,1,2252.33,1694.27Z"/><path class="cls-18" d="M2235.86,1658.72c9.16-43.11,9.51-103.68-21.66-139.06-27.79-31.54-30.86-77.91-34-117.74-1.28-16.37-10.24-33.54-16.85-48.28-15.19-33.77-21.57-67.93-21-104.72.37-23.28,2.37-34.94-17.06-52.83-22.32-20.57-26.61-53.89-27.11-84.23a580.68,580.68,0,0,1,3.31-72.58c1.77,41,10.74,81.71,29.28,118.43,10.33,20.5,17.38,41.58,42.24,47,2.13,25.89-.33,52.84,2.6,78.24,4,34.49,25.27,67.2,32,101.66,3.15,16.14,1.36,32.83-1.38,49.06-.59,3.48-1.22,7.08-.38,10.52.11.44.24.88.38,1.3.09.26.18.52.29.76a5.49,5.49,0,0,0,.21.51,4.41,4.41,0,0,0,.28.58,6.36,6.36,0,0,0,.3.58,5.33,5.33,0,0,0,.32.56c.22.36.45.71.7,1.06a4.5,4.5,0,0,0,.39.5,4.78,4.78,0,0,0,.39.5,6.2,6.2,0,0,0,.43.48,18.12,18.12,0,0,0,1.82,1.79c.32.28.65.55,1,.82l.34.26c.23.18.47.35.71.52a7.57,7.57,0,0,0,.74.52l.13.09.55.37c1.75,1.15,3.62,2.2,5.5,3.24,3,13.93,16,72.61,26.56,115q1,6.28,2,12.57c.66,4.17,1.31,8.33,2,12.51.49,3.21,1,6.42,1.47,9.64.34,2.1.65,4.22,1,6.34.46,3,.91,6,1.36,9,.63,4.17,1.24,8.35,1.86,12.53q.58,3.95,1.14,7.89.89,6,1.73,12,1.28,8.86,2.52,17.75c.36,2.49.7,5,1,7.47-13.27-1.71-10.64,12.92-10.64,12.92-13-4.47-15.54,10.12-15.54,10.12s14.19,16.54,32.24,21.55q3.54,26.57,6.87,53.17C2246.51,1747.42,2227,1700.66,2235.86,1658.72Z"/><path class="cls-18" d="M2317.37,1681.78c2,4.78,8.84,4.72,13.72,3a46.84,46.84,0,0,0,23-17.53l-33-14.4c-3.7-1.62-7.59-3.27-11.62-2.93-8.38.71-14.11,9.62-22.42,10.92-8.74,1.37-16.09,14.34-19.35,21.74,8-3.38,14-1.46,22-.69C2292.63,1682.18,2316.76,1680.32,2317.37,1681.78Z"/><path class="cls-6" d="M2466,1923.38l-42.3,196.82-17.57,81.71c0,10.59-57.79,19.17-129.07,19.17-45.72,0-85.87-3.53-108.81-8.84-12.83-3-20.27-6.53-20.27-10.33l-55.12-256.41-4.75-22.12Z"/><path class="cls-8" d="M2466,1923.38c0,3.09-7.21,6-20,8.6-22.94,4.64-63.83,8.2-113.39,9.74-17.56.55-36.22.84-55.54.84-21.83,0-42.81-.37-62.34-1.07-43.29-1.54-79.4-4.62-101.83-8.61-15.76-2.8-24.77-6-24.77-9.5,0-8.5,54.53-15.7,130-18.21,18.53-.62,38.34-1,58.91-1,27.49,0,53.6.59,77.15,1.66C2420.1,1908.87,2466,1915.59,2466,1923.38Z"/><path class="cls-8" d="M2446,1932c-22.94,4.64-63.83,8.2-113.39,9.74-17.56.55-36.22.84-55.54.84-21.83,0-42.81-.37-62.34-1.07-43.29-1.54-79.4-4.62-101.83-8.61,22.42-4.52,62-8,110-9.62,18.53-.61,38.33-1,58.91-1,27.48,0,53.59.6,77.15,1.66C2395.66,1925.64,2426.16,1928.46,2446,1932Z"/><path class="cls-58" d="M2270.21,1683.39c80.43-87.63,79.45,156.07,77.77,222.48"/><path class="cls-58" d="M2208.49,1941.49q0-.23,0-.48c.89-12.27,2.05-24.23,3.4-35.84,9.62-82.45,29.66-147.81,43.55-185.64"/><g class="cls-59"><path class="cls-8" d="M2423.7,2120.2l-17.57,81.71c0,10.59-57.79,19.17-129.07,19.17-45.72,0-85.87-3.53-108.81-8.84-12.83-3-20.27-6.53-20.27-10.33l-55.12-256.41c33.19,67.16,107.4,120.38,170.63,146.87A369.43,369.43,0,0,0,2423.7,2120.2Z"/></g><path class="cls-16" d="M2321.53,1716.82c-21.76-3.37-51.32-33.43-51.32-33.43s3.9-20.22,26.44-13c0,0,15.19,9.46,22.89,15.42"/><path class="cls-18" d="M2321.53,1716.82a35.89,35.89,0,0,1-7.64-1.57,56.25,56.25,0,0,1-7.3-2.84,100.48,100.48,0,0,1-13.6-7.79q-3.24-2.19-6.39-4.53c-2.08-1.57-4.12-3.2-6.13-4.85-4-3.31-7.91-6.76-11.66-10.48l-.74-.73.22-1a18.26,18.26,0,0,1,.64-2.31c.25-.73.53-1.44.85-2.14a21.63,21.63,0,0,1,2.31-4,18.34,18.34,0,0,1,7.23-5.93,19.3,19.3,0,0,1,9.11-1.63,31.93,31.93,0,0,1,8.76,1.76l.23.08.15.1c1.95,1.27,3.82,2.61,5.71,3.94s3.75,2.69,5.6,4.08,3.66,2.82,5.46,4.28,3.54,3,5.2,4.6l-6-3.52-5.95-3.48-11.89-6.95.38.18a28.35,28.35,0,0,0-7.81-1.32,16.68,16.68,0,0,0-7.36,1.41,14.52,14.52,0,0,0-5.64,4.75,21.2,21.2,0,0,0-1.92,3.3c-.27.58-.52,1.18-.73,1.78a16.59,16.59,0,0,0-.52,1.76l-.53-1.75c1.76,1.79,3.64,3.58,5.51,5.31s3.76,3.49,5.69,5.17c3.85,3.38,7.8,6.65,11.88,9.75q3.06,2.31,6.23,4.49c2.11,1.45,4.29,2.78,6.49,4.09A53.92,53.92,0,0,0,2321.53,1716.82Z"/><path class="cls-41" d="M1789.39,1116.39c.16-1.66.37-3.3.62-4.94,3.06-.89,6.11-1.74,9.13-2.58a0,0,0,0,1,0,0C1796.92,1112.26,1793.26,1114.47,1789.39,1116.39Z"/></g></g></svg>